<svg width="141" height="38" viewBox="0 0 141 38" fill="none" xmlns="http://www.w3.org/2000/svg">
<path d="M1.28838 19.275C1.28838 17.575 1.67171 16.05 2.43838 14.7C3.20505 13.3333 4.24671 12.2667 5.56338 11.5C6.89671 10.7333 8.37171 10.35 9.98838 10.35C11.8884 10.35 13.5467 10.8083 14.9634 11.725C16.38 12.6417 17.4134 13.9417 18.0634 15.625H15.3384C14.855 14.575 14.155 13.7667 13.2384 13.2C12.3384 12.6333 11.255 12.35 9.98838 12.35C8.77171 12.35 7.68005 12.6333 6.71338 13.2C5.74671 13.7667 4.98838 14.575 4.43838 15.625C3.88838 16.6583 3.61338 17.875 3.61338 19.275C3.61338 20.6583 3.88838 21.875 4.43838 22.925C4.98838 23.9583 5.74671 24.7583 6.71338 25.325C7.68005 25.8917 8.77171 26.175 9.98838 26.175C11.255 26.175 12.3384 25.9 13.2384 25.35C14.155 24.7833 14.855 23.975 15.3384 22.925H18.0634C17.4134 24.5917 16.38 25.8833 14.9634 26.8C13.5467 27.7 11.8884 28.15 9.98838 28.15C8.37171 28.15 6.89671 27.775 5.56338 27.025C4.24671 26.2583 3.20505 25.2 2.43838 23.85C1.67171 22.5 1.28838 20.975 1.28838 19.275ZM29.3499 28.175C27.7332 28.175 26.2582 27.8 24.9249 27.05C23.5916 26.2833 22.5332 25.225 21.7499 23.875C20.9832 22.5083 20.5999 20.975 20.5999 19.275C20.5999 17.575 20.9832 16.05 21.7499 14.7C22.5332 13.3333 23.5916 12.275 24.9249 11.525C26.2582 10.7583 27.7332 10.375 29.3499 10.375C30.9832 10.375 32.4666 10.7583 33.7999 11.525C35.1332 12.275 36.1832 13.325 36.9499 14.675C37.7166 16.025 38.0999 17.5583 38.0999 19.275C38.0999 20.9917 37.7166 22.525 36.9499 23.875C36.1832 25.225 35.1332 26.2833 33.7999 27.05C32.4666 27.8 30.9832 28.175 29.3499 28.175ZM29.3499 26.2C30.5666 26.2 31.6582 25.9167 32.6249 25.35C33.6082 24.7833 34.3749 23.975 34.9249 22.925C35.4916 21.875 35.7749 20.6583 35.7749 19.275C35.7749 17.875 35.4916 16.6583 34.9249 15.625C34.3749 14.575 33.6166 13.7667 32.6499 13.2C31.6832 12.6333 30.5832 12.35 29.3499 12.35C28.1166 12.35 27.0166 12.6333 26.0499 13.2C25.0832 13.7667 24.3166 14.575 23.7499 15.625C23.1999 16.6583 22.9249 17.875 22.9249 19.275C22.9249 20.6583 23.1999 21.875 23.7499 22.925C24.3166 23.975 25.0832 24.7833 26.0499 25.35C27.0332 25.9167 28.1332 26.2 29.3499 26.2ZM54.8032 28H52.5282L43.3782 14.125V28H41.1032V10.55H43.3782L52.5282 24.4V10.55H54.8032V28ZM69.4063 10.575V12.425H64.6563V28H62.3813V12.425H57.6063V10.575H69.4063ZM82.5067 24.125H74.9067L73.5067 28H71.1067L77.4067 10.675H80.0317L86.3067 28H83.9067L82.5067 24.125ZM81.8567 22.275L78.7067 13.475L75.5567 22.275H81.8567ZM88.2024 19.275C88.2024 17.575 88.5858 16.05 89.3524 14.7C90.1191 13.3333 91.1608 12.2667 92.4774 11.5C93.8108 10.7333 95.2858 10.35 96.9024 10.35C98.8024 10.35 100.461 10.8083 101.877 11.725C103.294 12.6417 104.327 13.9417 104.977 15.625H102.252C101.769 14.575 101.069 13.7667 100.152 13.2C99.2524 12.6333 98.1691 12.35 96.9024 12.35C95.6858 12.35 94.5941 12.6333 93.6274 13.2C92.6608 13.7667 91.9024 14.575 91.3524 15.625C90.8024 16.6583 90.5274 17.875 90.5274 19.275C90.5274 20.6583 90.8024 21.875 91.3524 22.925C91.9024 23.9583 92.6608 24.7583 93.6274 25.325C94.5941 25.8917 95.6858 26.175 96.9024 26.175C98.1691 26.175 99.2524 25.9 100.152 25.35C101.069 24.7833 101.769 23.975 102.252 22.925H104.977C104.327 24.5917 103.294 25.8833 101.877 26.8C100.461 27.7 98.8024 28.15 96.9024 28.15C95.2858 28.15 93.8108 27.775 92.4774 27.025C91.1608 26.2583 90.1191 25.2 89.3524 23.85C88.5858 22.5 88.2024 20.975 88.2024 19.275ZM119.089 10.575V12.425H114.339V28H112.064V12.425H107.289V10.575H119.089ZM129.789 28.175C128.173 28.175 126.698 27.8 125.364 27.05C124.031 26.2833 122.973 25.225 122.189 23.875C121.423 22.5083 121.039 20.975 121.039 19.275C121.039 17.575 121.423 16.05 122.189 14.7C122.973 13.3333 124.031 12.275 125.364 11.525C126.698 10.7583 128.173 10.375 129.789 10.375C131.423 10.375 132.906 10.7583 134.239 11.525C135.573 12.275 136.623 13.325 137.389 14.675C138.156 16.025 138.539 17.5583 138.539 19.275C138.539 20.9917 138.156 22.525 137.389 23.875C136.623 25.225 135.573 26.2833 134.239 27.05C132.906 27.8 131.423 28.175 129.789 28.175ZM129.789 26.2C131.006 26.2 132.098 25.9167 133.064 25.35C134.048 24.7833 134.814 23.975 135.364 22.925C135.931 21.875 136.214 20.6583 136.214 19.275C136.214 17.875 135.931 16.6583 135.364 15.625C134.814 14.575 134.056 13.7667 133.089 13.2C132.123 12.6333 131.023 12.35 129.789 12.35C128.556 12.35 127.456 12.6333 126.489 13.2C125.523 13.7667 124.756 14.575 124.189 15.625C123.639 16.6583 123.364 17.875 123.364 19.275C123.364 20.6583 123.639 21.875 124.189 22.925C124.756 23.975 125.523 24.7833 126.489 25.35C127.473 25.9167 128.573 26.2 129.789 26.2Z" fill="white"/>
<line x1="1.5" y1="34.2566" x2="138.5" y2="34.2566" stroke="#E7C006" stroke-width="3" stroke-linecap="round"/>
</svg>
