<svg width="186" height="50" viewBox="0 0 186 50" fill="none" xmlns="http://www.w3.org/2000/svg">
<path d="M6.29003 22.53C6.29003 20.49 6.75003 18.66 7.67003 17.04C8.59003 15.4 9.84003 14.12 11.42 13.2C13.02 12.28 14.79 11.82 16.73 11.82C19.01 11.82 21 12.37 22.7 13.47C24.4 14.57 25.64 16.13 26.42 18.15H23.15C22.57 16.89 21.73 15.92 20.63 15.24C19.55 14.56 18.25 14.22 16.73 14.22C15.27 14.22 13.96 14.56 12.8 15.24C11.64 15.92 10.73 16.89 10.07 18.15C9.41003 19.39 9.08003 20.85 9.08003 22.53C9.08003 24.19 9.41003 25.65 10.07 26.91C10.73 28.15 11.64 29.11 12.8 29.79C13.96 30.47 15.27 30.81 16.73 30.81C18.25 30.81 19.55 30.48 20.63 29.82C21.73 29.14 22.57 28.17 23.15 26.91H26.42C25.64 28.91 24.4 30.46 22.7 31.56C21 32.64 19.01 33.18 16.73 33.18C14.79 33.18 13.02 32.73 11.42 31.83C9.84003 30.91 8.59003 29.64 7.67003 28.02C6.75003 26.4 6.29003 24.57 6.29003 22.53ZM39.9639 33.21C38.0239 33.21 36.2539 32.76 34.6539 31.86C33.0539 30.94 31.7839 29.67 30.8439 28.05C29.9239 26.41 29.4639 24.57 29.4639 22.53C29.4639 20.49 29.9239 18.66 30.8439 17.04C31.7839 15.4 33.0539 14.13 34.6539 13.23C36.2539 12.31 38.0239 11.85 39.9639 11.85C41.9239 11.85 43.7039 12.31 45.3039 13.23C46.9039 14.13 48.1639 15.39 49.0839 17.01C50.0039 18.63 50.4639 20.47 50.4639 22.53C50.4639 24.59 50.0039 26.43 49.0839 28.05C48.1639 29.67 46.9039 30.94 45.3039 31.86C43.7039 32.76 41.9239 33.21 39.9639 33.21ZM39.9639 30.84C41.4239 30.84 42.7339 30.5 43.8939 29.82C45.0739 29.14 45.9939 28.17 46.6539 26.91C47.3339 25.65 47.6739 24.19 47.6739 22.53C47.6739 20.85 47.3339 19.39 46.6539 18.15C45.9939 16.89 45.0839 15.92 43.9239 15.24C42.7639 14.56 41.4439 14.22 39.9639 14.22C38.4839 14.22 37.1639 14.56 36.0039 15.24C34.8439 15.92 33.9239 16.89 33.2439 18.15C32.5839 19.39 32.2539 20.85 32.2539 22.53C32.2539 24.19 32.5839 25.65 33.2439 26.91C33.9239 28.17 34.8439 29.14 36.0039 29.82C37.1839 30.5 38.5039 30.84 39.9639 30.84ZM70.5078 33H67.7778L56.7978 16.35V33H54.0678V12.06H56.7978L67.7778 28.68V12.06H70.5078V33ZM88.0316 12.09V14.31H82.3316V33H79.6016V14.31H73.8716V12.09H88.0316ZM103.752 28.35H94.6321L92.9521 33H90.0721L97.6321 12.21H100.782L108.312 33H105.432L103.752 28.35ZM102.972 26.13L99.1921 15.57L95.4121 26.13H102.972ZM110.587 22.53C110.587 20.49 111.047 18.66 111.967 17.04C112.887 15.4 114.137 14.12 115.717 13.2C117.317 12.28 119.087 11.82 121.027 11.82C123.307 11.82 125.297 12.37 126.997 13.47C128.697 14.57 129.937 16.13 130.717 18.15H127.447C126.867 16.89 126.027 15.92 124.927 15.24C123.847 14.56 122.547 14.22 121.027 14.22C119.567 14.22 118.257 14.56 117.097 15.24C115.937 15.92 115.027 16.89 114.367 18.15C113.707 19.39 113.377 20.85 113.377 22.53C113.377 24.19 113.707 25.65 114.367 26.91C115.027 28.15 115.937 29.11 117.097 29.79C118.257 30.47 119.567 30.81 121.027 30.81C122.547 30.81 123.847 30.48 124.927 29.82C126.027 29.14 126.867 28.17 127.447 26.91H130.717C129.937 28.91 128.697 30.46 126.997 31.56C125.297 32.64 123.307 33.18 121.027 33.18C119.087 33.18 117.317 32.73 115.717 31.83C114.137 30.91 112.887 29.64 111.967 28.02C111.047 26.4 110.587 24.57 110.587 22.53ZM147.651 12.09V14.31H141.951V33H139.221V14.31H133.491V12.09H147.651ZM160.491 33.21C158.551 33.21 156.781 32.76 155.181 31.86C153.581 30.94 152.311 29.67 151.371 28.05C150.451 26.41 149.991 24.57 149.991 22.53C149.991 20.49 150.451 18.66 151.371 17.04C152.311 15.4 153.581 14.13 155.181 13.23C156.781 12.31 158.551 11.85 160.491 11.85C162.451 11.85 164.231 12.31 165.831 13.23C167.431 14.13 168.691 15.39 169.611 17.01C170.531 18.63 170.991 20.47 170.991 22.53C170.991 24.59 170.531 26.43 169.611 28.05C168.691 29.67 167.431 30.94 165.831 31.86C164.231 32.76 162.451 33.21 160.491 33.21ZM160.491 30.84C161.951 30.84 163.261 30.5 164.421 29.82C165.601 29.14 166.521 28.17 167.181 26.91C167.861 25.65 168.201 24.19 168.201 22.53C168.201 20.85 167.861 19.39 167.181 18.15C166.521 16.89 165.611 15.92 164.451 15.24C163.291 14.56 161.971 14.22 160.491 14.22C159.011 14.22 157.691 14.56 156.531 15.24C155.371 15.92 154.451 16.89 153.771 18.15C153.111 19.39 152.781 20.85 152.781 22.53C152.781 24.19 153.111 25.65 153.771 26.91C154.451 28.17 155.371 29.14 156.531 29.82C157.711 30.5 159.031 30.84 160.491 30.84Z" fill="white"/>
<line x1="2.27649" y1="47.5098" x2="184.276" y2="47.5098" stroke="#E7C006" stroke-width="3" stroke-linecap="round"/>
</svg>
