<svg width="152" height="49" viewBox="0 0 152 49" fill="none" xmlns="http://www.w3.org/2000/svg">
<path d="M30.15 18.15C29.57 16.93 28.73 15.99 27.63 15.33C26.53 14.65 25.25 14.31 23.79 14.31C22.33 14.31 21.01 14.65 19.83 15.33C18.67 15.99 17.75 16.95 17.07 18.21C16.41 19.45 16.08 20.89 16.08 22.53C16.08 24.17 16.41 25.61 17.07 26.85C17.75 28.09 18.67 29.05 19.83 29.73C21.01 30.39 22.33 30.72 23.79 30.72C25.83 30.72 27.51 30.11 28.83 28.89C30.15 27.67 30.92 26.02 31.14 23.94H22.8V21.72H34.05V23.82C33.89 25.54 33.35 27.12 32.43 28.56C31.51 29.98 30.3 31.11 28.8 31.95C27.3 32.77 25.63 33.18 23.79 33.18C21.85 33.18 20.08 32.73 18.48 31.83C16.88 30.91 15.61 29.64 14.67 28.02C13.75 26.4 13.29 24.57 13.29 22.53C13.29 20.49 13.75 18.66 14.67 17.04C15.61 15.4 16.88 14.13 18.48 13.23C20.08 12.31 21.85 11.85 23.79 11.85C26.01 11.85 27.97 12.4 29.67 13.5C31.39 14.6 32.64 16.15 33.42 18.15H30.15ZM50.0196 28.35H40.8996L39.2196 33H36.3396L43.8996 12.21H47.0496L54.5796 33H51.6996L50.0196 28.35ZM49.2396 26.13L45.4596 15.57L41.6796 26.13H49.2396ZM60.6045 30.78H67.9245V33H57.8745V12.09H60.6045V30.78ZM73.5537 14.31V21.3H81.1737V23.55H73.5537V30.75H82.0737V33H70.8237V12.06H82.0737V14.31H73.5537ZM97.2145 33L92.2345 24.45H88.9345V33H86.2045V12.09H92.9545C94.5345 12.09 95.8645 12.36 96.9445 12.9C98.0445 13.44 98.8645 14.17 99.4045 15.09C99.9445 16.01 100.215 17.06 100.215 18.24C100.215 19.68 99.7945 20.95 98.9545 22.05C98.1345 23.15 96.8945 23.88 95.2345 24.24L100.485 33H97.2145ZM88.9345 22.26H92.9545C94.4345 22.26 95.5445 21.9 96.2845 21.18C97.0245 20.44 97.3945 19.46 97.3945 18.24C97.3945 17 97.0245 16.04 96.2845 15.36C95.5645 14.68 94.4545 14.34 92.9545 14.34H88.9345V22.26ZM107.186 12.09V33H104.456V12.09H107.186ZM124.199 28.35H115.079L113.399 33H110.519L118.079 12.21H121.229L128.759 33H125.879L124.199 28.35ZM123.419 26.13L119.639 15.57L115.859 26.13H123.419Z" fill="white"/>
<line x1="2.05457" y1="46.5098" x2="150.156" y2="46.5098" stroke="#E7C006" stroke-width="3" stroke-linecap="round"/>
</svg>
