<svg width="110" height="47" viewBox="0 0 110 47" fill="none" xmlns="http://www.w3.org/2000/svg">
<path d="M14.04 12.09V33H11.31V12.09H14.04ZM35.1328 33H32.4028L21.4228 16.35V33H18.6928V12.06H21.4228L32.4028 28.68V12.06H35.1328V33ZM42.5166 12.09V33H39.7866V12.09H42.5166ZM46.1494 22.53C46.1494 20.49 46.6094 18.66 47.5294 17.04C48.4494 15.4 49.6994 14.12 51.2794 13.2C52.8794 12.28 54.6494 11.82 56.5894 11.82C58.8694 11.82 60.8594 12.37 62.5594 13.47C64.2594 14.57 65.4994 16.13 66.2794 18.15H63.0094C62.4294 16.89 61.5894 15.92 60.4894 15.24C59.4094 14.56 58.1094 14.22 56.5894 14.22C55.1294 14.22 53.8194 14.56 52.6594 15.24C51.4994 15.92 50.5894 16.89 49.9294 18.15C49.2694 19.39 48.9394 20.85 48.9394 22.53C48.9394 24.19 49.2694 25.65 49.9294 26.91C50.5894 28.15 51.4994 29.11 52.6594 29.79C53.8194 30.47 55.1294 30.81 56.5894 30.81C58.1094 30.81 59.4094 30.48 60.4894 29.82C61.5894 29.14 62.4294 28.17 63.0094 26.91H66.2794C65.4994 28.91 64.2594 30.46 62.5594 31.56C60.8594 32.64 58.8694 33.18 56.5894 33.18C54.6494 33.18 52.8794 32.73 51.2794 31.83C49.6994 30.91 48.4494 29.64 47.5294 28.02C46.6094 26.4 46.1494 24.57 46.1494 22.53ZM73.0732 12.09V33H70.3432V12.09H73.0732ZM87.206 33.21C85.266 33.21 83.496 32.76 81.896 31.86C80.296 30.94 79.026 29.67 78.086 28.05C77.166 26.41 76.706 24.57 76.706 22.53C76.706 20.49 77.166 18.66 78.086 17.04C79.026 15.4 80.296 14.13 81.896 13.23C83.496 12.31 85.266 11.85 87.206 11.85C89.166 11.85 90.946 12.31 92.546 13.23C94.146 14.13 95.406 15.39 96.326 17.01C97.246 18.63 97.706 20.47 97.706 22.53C97.706 24.59 97.246 26.43 96.326 28.05C95.406 29.67 94.146 30.94 92.546 31.86C90.946 32.76 89.166 33.21 87.206 33.21ZM87.206 30.84C88.666 30.84 89.976 30.5 91.136 29.82C92.316 29.14 93.236 28.17 93.896 26.91C94.576 25.65 94.916 24.19 94.916 22.53C94.916 20.85 94.576 19.39 93.896 18.15C93.236 16.89 92.326 15.92 91.166 15.24C90.006 14.56 88.686 14.22 87.206 14.22C85.726 14.22 84.406 14.56 83.246 15.24C82.086 15.92 81.166 16.89 80.486 18.15C79.826 19.39 79.496 20.85 79.496 22.53C79.496 24.19 79.826 25.65 80.486 26.91C81.166 28.17 82.086 29.14 83.246 29.82C84.426 30.5 85.746 30.84 87.206 30.84Z" fill="white"/>
<line x1="2.28662" y1="45.2566" x2="108.08" y2="45.2566" stroke="#E7C006" stroke-width="3" stroke-linecap="round"/>
</svg>
