<svg width="76" height="38" viewBox="0 0 76 38" fill="none" xmlns="http://www.w3.org/2000/svg">
<path d="M4.41338 10.575V28H2.13838V10.575H4.41338ZM21.9907 28H19.7157L10.5657 14.125V28H8.29072V10.55H10.5657L19.7157 24.4V10.55H21.9907V28ZM28.1438 10.575V28H25.8688V10.575H28.1438ZM31.1712 19.275C31.1712 17.575 31.5545 16.05 32.3212 14.7C33.0879 13.3333 34.1295 12.2667 35.4462 11.5C36.7795 10.7333 38.2545 10.35 39.8712 10.35C41.7712 10.35 43.4295 10.8083 44.8462 11.725C46.2629 12.6417 47.2962 13.9417 47.9462 15.625H45.2212C44.7379 14.575 44.0379 13.7667 43.1212 13.2C42.2212 12.6333 41.1379 12.35 39.8712 12.35C38.6545 12.35 37.5629 12.6333 36.5962 13.2C35.6295 13.7667 34.8712 14.575 34.3212 15.625C33.7712 16.6583 33.4962 17.875 33.4962 19.275C33.4962 20.6583 33.7712 21.875 34.3212 22.925C34.8712 23.9583 35.6295 24.7583 36.5962 25.325C37.5629 25.8917 38.6545 26.175 39.8712 26.175C41.1379 26.175 42.2212 25.9 43.1212 25.35C44.0379 24.7833 44.7379 23.975 45.2212 22.925H47.9462C47.2962 24.5917 46.2629 25.8833 44.8462 26.8C43.4295 27.7 41.7712 28.15 39.8712 28.15C38.2545 28.15 36.7795 27.775 35.4462 27.025C34.1295 26.2583 33.0879 25.2 32.3212 23.85C31.5545 22.5 31.1712 20.975 31.1712 19.275ZM53.6077 10.575V28H51.3327V10.575H53.6077ZM65.3851 28.175C63.7684 28.175 62.2934 27.8 60.9601 27.05C59.6267 26.2833 58.5684 25.225 57.7851 23.875C57.0184 22.5083 56.6351 20.975 56.6351 19.275C56.6351 17.575 57.0184 16.05 57.7851 14.7C58.5684 13.3333 59.6267 12.275 60.9601 11.525C62.2934 10.7583 63.7684 10.375 65.3851 10.375C67.0184 10.375 68.5017 10.7583 69.8351 11.525C71.1684 12.275 72.2184 13.325 72.9851 14.675C73.7517 16.025 74.1351 17.5583 74.1351 19.275C74.1351 20.9917 73.7517 22.525 72.9851 23.875C72.2184 25.225 71.1684 26.2833 69.8351 27.05C68.5017 27.8 67.0184 28.175 65.3851 28.175ZM65.3851 26.2C66.6017 26.2 67.6934 25.9167 68.6601 25.35C69.6434 24.7833 70.4101 23.975 70.9601 22.925C71.5267 21.875 71.8101 20.6583 71.8101 19.275C71.8101 17.875 71.5267 16.6583 70.9601 15.625C70.4101 14.575 69.6517 13.7667 68.6851 13.2C67.7184 12.6333 66.6184 12.35 65.3851 12.35C64.1517 12.35 63.0517 12.6333 62.0851 13.2C61.1184 13.7667 60.3517 14.575 59.7851 15.625C59.2351 16.6583 58.9601 17.875 58.9601 19.275C58.9601 20.6583 59.2351 21.875 59.7851 22.925C60.3517 23.975 61.1184 24.7833 62.0851 25.35C63.0684 25.9167 64.1684 26.2 65.3851 26.2Z" fill="#E7C006"/>
<line x1="1.5" y1="34.2566" x2="73.5" y2="34.2566" stroke="white" stroke-width="3" stroke-linecap="round"/>
</svg>
