<svg width="136" height="38" viewBox="0 0 136 38" fill="none" xmlns="http://www.w3.org/2000/svg">
<path d="M15.8384 28H13.5634L4.41338 14.125V28H2.13838V10.55H4.41338L13.5634 24.4V10.55H15.8384V28ZM27.6165 28.175C25.9998 28.175 24.5248 27.8 23.1915 27.05C21.8582 26.2833 20.7998 25.225 20.0165 23.875C19.2498 22.5083 18.8665 20.975 18.8665 19.275C18.8665 17.575 19.2498 16.05 20.0165 14.7C20.7998 13.3333 21.8582 12.275 23.1915 11.525C24.5248 10.7583 25.9998 10.375 27.6165 10.375C29.2498 10.375 30.7332 10.7583 32.0665 11.525C33.3998 12.275 34.4498 13.325 35.2165 14.675C35.9832 16.025 36.3665 17.5583 36.3665 19.275C36.3665 20.9917 35.9832 22.525 35.2165 23.875C34.4498 25.225 33.3998 26.2833 32.0665 27.05C30.7332 27.8 29.2498 28.175 27.6165 28.175ZM27.6165 26.2C28.8332 26.2 29.9248 25.9167 30.8915 25.35C31.8748 24.7833 32.6415 23.975 33.1915 22.925C33.7582 21.875 34.0415 20.6583 34.0415 19.275C34.0415 17.875 33.7582 16.6583 33.1915 15.625C32.6415 14.575 31.8832 13.7667 30.9165 13.2C29.9498 12.6333 28.8498 12.35 27.6165 12.35C26.3832 12.35 25.2832 12.6333 24.3165 13.2C23.3498 13.7667 22.5832 14.575 22.0165 15.625C21.4665 16.6583 21.1915 17.875 21.1915 19.275C21.1915 20.6583 21.4665 21.875 22.0165 22.925C22.5832 23.975 23.3498 24.7833 24.3165 25.35C25.2998 25.9167 26.3998 26.2 27.6165 26.2ZM44.8948 28.175C43.7448 28.175 42.7115 27.975 41.7948 27.575C40.8948 27.1583 40.1865 26.5917 39.6698 25.875C39.1532 25.1417 38.8865 24.3 38.8698 23.35H41.2948C41.3782 24.1667 41.7115 24.8583 42.2948 25.425C42.8948 25.975 43.7615 26.25 44.8948 26.25C45.9782 26.25 46.8282 25.9833 47.4448 25.45C48.0782 24.9 48.3948 24.2 48.3948 23.35C48.3948 22.6833 48.2115 22.1417 47.8448 21.725C47.4782 21.3083 47.0198 20.9917 46.4698 20.775C45.9198 20.5583 45.1782 20.325 44.2448 20.075C43.0948 19.775 42.1698 19.475 41.4698 19.175C40.7865 18.875 40.1948 18.4083 39.6948 17.775C39.2115 17.125 38.9698 16.2583 38.9698 15.175C38.9698 14.225 39.2115 13.3833 39.6948 12.65C40.1782 11.9167 40.8532 11.35 41.7198 10.95C42.6032 10.55 43.6115 10.35 44.7448 10.35C46.3782 10.35 47.7115 10.7583 48.7448 11.575C49.7948 12.3917 50.3865 13.475 50.5198 14.825H48.0198C47.9365 14.1583 47.5865 13.575 46.9698 13.075C46.3532 12.5583 45.5365 12.3 44.5198 12.3C43.5698 12.3 42.7948 12.55 42.1948 13.05C41.5948 13.5333 41.2948 14.2167 41.2948 15.1C41.2948 15.7333 41.4698 16.25 41.8198 16.65C42.1865 17.05 42.6282 17.3583 43.1448 17.575C43.6782 17.775 44.4198 18.0083 45.3698 18.275C46.5198 18.5917 47.4448 18.9083 48.1448 19.225C48.8448 19.525 49.4448 20 49.9448 20.65C50.4448 21.2833 50.6948 22.15 50.6948 23.25C50.6948 24.1 50.4698 24.9 50.0198 25.65C49.5698 26.4 48.9032 27.0083 48.0198 27.475C47.1365 27.9417 46.0948 28.175 44.8948 28.175ZM61.9427 28.175C60.326 28.175 58.851 27.8 57.5177 27.05C56.1843 26.2833 55.126 25.225 54.3427 23.875C53.576 22.5083 53.1927 20.975 53.1927 19.275C53.1927 17.575 53.576 16.05 54.3427 14.7C55.126 13.3333 56.1843 12.275 57.5177 11.525C58.851 10.7583 60.326 10.375 61.9427 10.375C63.576 10.375 65.0593 10.7583 66.3927 11.525C67.726 12.275 68.776 13.325 69.5427 14.675C70.3093 16.025 70.6927 17.5583 70.6927 19.275C70.6927 20.9917 70.3093 22.525 69.5427 23.875C68.776 25.225 67.726 26.2833 66.3927 27.05C65.0593 27.8 63.576 28.175 61.9427 28.175ZM61.9427 26.2C63.1593 26.2 64.251 25.9167 65.2177 25.35C66.201 24.7833 66.9677 23.975 67.5177 22.925C68.0843 21.875 68.3677 20.6583 68.3677 19.275C68.3677 17.875 68.0843 16.6583 67.5177 15.625C66.9677 14.575 66.2093 13.7667 65.2427 13.2C64.276 12.6333 63.176 12.35 61.9427 12.35C60.7093 12.35 59.6093 12.6333 58.6427 13.2C57.676 13.7667 56.9093 14.575 56.3427 15.625C55.7927 16.6583 55.5177 17.875 55.5177 19.275C55.5177 20.6583 55.7927 21.875 56.3427 22.925C56.9093 23.975 57.676 24.7833 58.6427 25.35C59.626 25.9167 60.726 26.2 61.9427 26.2ZM84.421 10.575V12.425H79.671V28H77.396V12.425H72.621V10.575H84.421ZM96.3964 28L92.2464 20.875H89.4964V28H87.2214V10.575H92.8464C94.1631 10.575 95.2714 10.8 96.1714 11.25C97.0881 11.7 97.7714 12.3083 98.2214 13.075C98.6714 13.8417 98.8964 14.7167 98.8964 15.7C98.8964 16.9 98.5464 17.9583 97.8464 18.875C97.1631 19.7917 96.1297 20.4 94.7464 20.7L99.1214 28H96.3964ZM89.4964 19.05H92.8464C94.0797 19.05 95.0047 18.75 95.6214 18.15C96.2381 17.5333 96.5464 16.7167 96.5464 15.7C96.5464 14.6667 96.2381 13.8667 95.6214 13.3C95.0214 12.7333 94.0964 12.45 92.8464 12.45H89.4964V19.05ZM110.331 28.175C108.715 28.175 107.24 27.8 105.906 27.05C104.573 26.2833 103.515 25.225 102.731 23.875C101.965 22.5083 101.581 20.975 101.581 19.275C101.581 17.575 101.965 16.05 102.731 14.7C103.515 13.3333 104.573 12.275 105.906 11.525C107.24 10.7583 108.715 10.375 110.331 10.375C111.965 10.375 113.448 10.7583 114.781 11.525C116.115 12.275 117.165 13.325 117.931 14.675C118.698 16.025 119.081 17.5583 119.081 19.275C119.081 20.9917 118.698 22.525 117.931 23.875C117.165 25.225 116.115 26.2833 114.781 27.05C113.448 27.8 111.965 28.175 110.331 28.175ZM110.331 26.2C111.548 26.2 112.64 25.9167 113.606 25.35C114.59 24.7833 115.356 23.975 115.906 22.925C116.473 21.875 116.756 20.6583 116.756 19.275C116.756 17.875 116.473 16.6583 115.906 15.625C115.356 14.575 114.598 13.7667 113.631 13.2C112.665 12.6333 111.565 12.35 110.331 12.35C109.098 12.35 107.998 12.6333 107.031 13.2C106.065 13.7667 105.298 14.575 104.731 15.625C104.181 16.6583 103.906 17.875 103.906 19.275C103.906 20.6583 104.181 21.875 104.731 22.925C105.298 23.975 106.065 24.7833 107.031 25.35C108.015 25.9167 109.115 26.2 110.331 26.2ZM127.61 28.175C126.46 28.175 125.426 27.975 124.51 27.575C123.61 27.1583 122.901 26.5917 122.385 25.875C121.868 25.1417 121.601 24.3 121.585 23.35H124.01C124.093 24.1667 124.426 24.8583 125.01 25.425C125.61 25.975 126.476 26.25 127.61 26.25C128.693 26.25 129.543 25.9833 130.16 25.45C130.793 24.9 131.11 24.2 131.11 23.35C131.11 22.6833 130.926 22.1417 130.56 21.725C130.193 21.3083 129.735 20.9917 129.185 20.775C128.635 20.5583 127.893 20.325 126.96 20.075C125.81 19.775 124.885 19.475 124.185 19.175C123.501 18.875 122.91 18.4083 122.41 17.775C121.926 17.125 121.685 16.2583 121.685 15.175C121.685 14.225 121.926 13.3833 122.41 12.65C122.893 11.9167 123.568 11.35 124.435 10.95C125.318 10.55 126.326 10.35 127.46 10.35C129.093 10.35 130.426 10.7583 131.46 11.575C132.51 12.3917 133.101 13.475 133.235 14.825H130.735C130.651 14.1583 130.301 13.575 129.685 13.075C129.068 12.5583 128.251 12.3 127.235 12.3C126.285 12.3 125.51 12.55 124.91 13.05C124.31 13.5333 124.01 14.2167 124.01 15.1C124.01 15.7333 124.185 16.25 124.535 16.65C124.901 17.05 125.343 17.3583 125.86 17.575C126.393 17.775 127.135 18.0083 128.085 18.275C129.235 18.5917 130.16 18.9083 130.86 19.225C131.56 19.525 132.16 20 132.66 20.65C133.16 21.2833 133.41 22.15 133.41 23.25C133.41 24.1 133.185 24.9 132.735 25.65C132.285 26.4 131.618 27.0083 130.735 27.475C129.851 27.9417 128.81 28.175 127.61 28.175Z" fill="#E7C006"/>
<line x1="1.5" y1="34.2566" x2="133.5" y2="34.2566" stroke="white" stroke-width="3" stroke-linecap="round"/>
</svg>
