<svg width="437" height="49" viewBox="0 0 437 49" fill="none" xmlns="http://www.w3.org/2000/svg">
<path d="M31.9908 33.2532H29.2608L18.2808 16.6032V33.2532H15.5508V12.3132H18.2808L29.2608 28.9332V12.3132H31.9908V33.2532ZM46.1245 33.4632C44.1845 33.4632 42.4145 33.0132 40.8145 32.1132C39.2145 31.1932 37.9445 29.9232 37.0045 28.3032C36.0845 26.6632 35.6245 24.8232 35.6245 22.7832C35.6245 20.7432 36.0845 18.9132 37.0045 17.2932C37.9445 15.6532 39.2145 14.3832 40.8145 13.4832C42.4145 12.5632 44.1845 12.1032 46.1245 12.1032C48.0845 12.1032 49.8645 12.5632 51.4645 13.4832C53.0645 14.3832 54.3245 15.6432 55.2445 17.2632C56.1645 18.8832 56.6245 20.7232 56.6245 22.7832C56.6245 24.8432 56.1645 26.6832 55.2445 28.3032C54.3245 29.9232 53.0645 31.1932 51.4645 32.1132C49.8645 33.0132 48.0845 33.4632 46.1245 33.4632ZM46.1245 31.0932C47.5845 31.0932 48.8945 30.7532 50.0545 30.0732C51.2345 29.3932 52.1545 28.4232 52.8145 27.1632C53.4945 25.9032 53.8345 24.4432 53.8345 22.7832C53.8345 21.1032 53.4945 19.6432 52.8145 18.4032C52.1545 17.1432 51.2445 16.1732 50.0845 15.4932C48.9245 14.8132 47.6045 14.4732 46.1245 14.4732C44.6445 14.4732 43.3245 14.8132 42.1645 15.4932C41.0045 16.1732 40.0845 17.1432 39.4045 18.4032C38.7445 19.6432 38.4145 21.1032 38.4145 22.7832C38.4145 24.4432 38.7445 25.9032 39.4045 27.1632C40.0845 28.4232 41.0045 29.3932 42.1645 30.0732C43.3445 30.7532 44.6645 31.0932 46.1245 31.0932ZM66.8585 33.4632C65.4785 33.4632 64.2385 33.2232 63.1385 32.7432C62.0585 32.2432 61.2085 31.5632 60.5885 30.7032C59.9685 29.8232 59.6485 28.8132 59.6285 27.6732H62.5385C62.6385 28.6532 63.0385 29.4832 63.7385 30.1632C64.4585 30.8232 65.4985 31.1532 66.8585 31.1532C68.1585 31.1532 69.1785 30.8332 69.9185 30.1932C70.6785 29.5332 71.0585 28.6932 71.0585 27.6732C71.0585 26.8732 70.8385 26.2232 70.3985 25.7232C69.9585 25.2232 69.4085 24.8432 68.7485 24.5832C68.0885 24.3232 67.1985 24.0432 66.0785 23.7432C64.6985 23.3832 63.5885 23.0232 62.7485 22.6632C61.9285 22.3032 61.2185 21.7432 60.6185 20.9832C60.0385 20.2032 59.7485 19.1632 59.7485 17.8632C59.7485 16.7232 60.0385 15.7132 60.6185 14.8332C61.1985 13.9532 62.0085 13.2732 63.0485 12.7932C64.1085 12.3132 65.3185 12.0732 66.6785 12.0732C68.6385 12.0732 70.2385 12.5632 71.4785 13.5432C72.7385 14.5232 73.4485 15.8232 73.6085 17.4432H70.6085C70.5085 16.6432 70.0885 15.9432 69.3485 15.3432C68.6085 14.7232 67.6285 14.4132 66.4085 14.4132C65.2685 14.4132 64.3385 14.7132 63.6185 15.3132C62.8985 15.8932 62.5385 16.7132 62.5385 17.7732C62.5385 18.5332 62.7485 19.1532 63.1685 19.6332C63.6085 20.1132 64.1385 20.4832 64.7585 20.7432C65.3985 20.9832 66.2885 21.2632 67.4285 21.5832C68.8085 21.9632 69.9185 22.3432 70.7585 22.7232C71.5985 23.0832 72.3185 23.6532 72.9185 24.4332C73.5185 25.1932 73.8185 26.2332 73.8185 27.5532C73.8185 28.5732 73.5485 29.5332 73.0085 30.4332C72.4685 31.3332 71.6685 32.0632 70.6085 32.6232C69.5485 33.1832 68.2985 33.4632 66.8585 33.4632ZM87.3159 33.4632C85.3759 33.4632 83.6059 33.0132 82.0059 32.1132C80.4059 31.1932 79.1359 29.9232 78.1959 28.3032C77.2759 26.6632 76.8159 24.8232 76.8159 22.7832C76.8159 20.7432 77.2759 18.9132 78.1959 17.2932C79.1359 15.6532 80.4059 14.3832 82.0059 13.4832C83.6059 12.5632 85.3759 12.1032 87.3159 12.1032C89.2759 12.1032 91.0559 12.5632 92.6559 13.4832C94.2559 14.3832 95.5159 15.6432 96.4359 17.2632C97.3559 18.8832 97.8159 20.7232 97.8159 22.7832C97.8159 24.8432 97.3559 26.6832 96.4359 28.3032C95.5159 29.9232 94.2559 31.1932 92.6559 32.1132C91.0559 33.0132 89.2759 33.4632 87.3159 33.4632ZM87.3159 31.0932C88.7759 31.0932 90.0859 30.7532 91.2459 30.0732C92.4259 29.3932 93.3459 28.4232 94.0059 27.1632C94.6859 25.9032 95.0259 24.4432 95.0259 22.7832C95.0259 21.1032 94.6859 19.6432 94.0059 18.4032C93.3459 17.1432 92.4359 16.1732 91.2759 15.4932C90.1159 14.8132 88.7959 14.4732 87.3159 14.4732C85.8359 14.4732 84.5159 14.8132 83.3559 15.4932C82.1959 16.1732 81.2759 17.1432 80.5959 18.4032C79.9359 19.6432 79.6059 21.1032 79.6059 22.7832C79.6059 24.4432 79.9359 25.9032 80.5959 27.1632C81.2759 28.4232 82.1959 29.3932 83.3559 30.0732C84.5359 30.7532 85.8559 31.0932 87.3159 31.0932ZM114.29 12.3432V14.5632H108.59V33.2532H105.86V14.5632H100.13V12.3432H114.29ZM128.66 33.2532L123.68 24.7032H120.38V33.2532H117.65V12.3432H124.4C125.98 12.3432 127.31 12.6132 128.39 13.1532C129.49 13.6932 130.31 14.4232 130.85 15.3432C131.39 16.2632 131.66 17.3132 131.66 18.4932C131.66 19.9332 131.24 21.2032 130.4 22.3032C129.58 23.4032 128.34 24.1332 126.68 24.4932L131.93 33.2532H128.66ZM120.38 22.5132H124.4C125.88 22.5132 126.99 22.1532 127.73 21.4332C128.47 20.6932 128.84 19.7132 128.84 18.4932C128.84 17.2532 128.47 16.2932 127.73 15.6132C127.01 14.9332 125.9 14.5932 124.4 14.5932H120.38V22.5132ZM145.382 33.4632C143.442 33.4632 141.672 33.0132 140.072 32.1132C138.472 31.1932 137.202 29.9232 136.262 28.3032C135.342 26.6632 134.882 24.8232 134.882 22.7832C134.882 20.7432 135.342 18.9132 136.262 17.2932C137.202 15.6532 138.472 14.3832 140.072 13.4832C141.672 12.5632 143.442 12.1032 145.382 12.1032C147.342 12.1032 149.122 12.5632 150.722 13.4832C152.322 14.3832 153.582 15.6432 154.502 17.2632C155.422 18.8832 155.882 20.7232 155.882 22.7832C155.882 24.8432 155.422 26.6832 154.502 28.3032C153.582 29.9232 152.322 31.1932 150.722 32.1132C149.122 33.0132 147.342 33.4632 145.382 33.4632ZM145.382 31.0932C146.842 31.0932 148.152 30.7532 149.312 30.0732C150.492 29.3932 151.412 28.4232 152.072 27.1632C152.752 25.9032 153.092 24.4432 153.092 22.7832C153.092 21.1032 152.752 19.6432 152.072 18.4032C151.412 17.1432 150.502 16.1732 149.342 15.4932C148.182 14.8132 146.862 14.4732 145.382 14.4732C143.902 14.4732 142.582 14.8132 141.422 15.4932C140.262 16.1732 139.342 17.1432 138.662 18.4032C138.002 19.6432 137.672 21.1032 137.672 22.7832C137.672 24.4432 138.002 25.9032 138.662 27.1632C139.342 28.4232 140.262 29.3932 141.422 30.0732C142.602 30.7532 143.922 31.0932 145.382 31.0932ZM166.116 33.4632C164.736 33.4632 163.496 33.2232 162.396 32.7432C161.316 32.2432 160.466 31.5632 159.846 30.7032C159.226 29.8232 158.906 28.8132 158.886 27.6732H161.796C161.896 28.6532 162.296 29.4832 162.996 30.1632C163.716 30.8232 164.756 31.1532 166.116 31.1532C167.416 31.1532 168.436 30.8332 169.176 30.1932C169.936 29.5332 170.316 28.6932 170.316 27.6732C170.316 26.8732 170.096 26.2232 169.656 25.7232C169.216 25.2232 168.666 24.8432 168.006 24.5832C167.346 24.3232 166.456 24.0432 165.336 23.7432C163.956 23.3832 162.846 23.0232 162.006 22.6632C161.186 22.3032 160.476 21.7432 159.876 20.9832C159.296 20.2032 159.006 19.1632 159.006 17.8632C159.006 16.7232 159.296 15.7132 159.876 14.8332C160.456 13.9532 161.266 13.2732 162.306 12.7932C163.366 12.3132 164.576 12.0732 165.936 12.0732C167.896 12.0732 169.496 12.5632 170.736 13.5432C171.996 14.5232 172.706 15.8232 172.866 17.4432H169.866C169.766 16.6432 169.346 15.9432 168.606 15.3432C167.866 14.7232 166.886 14.4132 165.666 14.4132C164.526 14.4132 163.596 14.7132 162.876 15.3132C162.156 15.8932 161.796 16.7132 161.796 17.7732C161.796 18.5332 162.006 19.1532 162.426 19.6332C162.866 20.1132 163.396 20.4832 164.016 20.7432C164.656 20.9832 165.546 21.2632 166.686 21.5832C168.066 21.9632 169.176 22.3432 170.016 22.7232C170.856 23.0832 171.576 23.6532 172.176 24.4332C172.776 25.1932 173.076 26.2332 173.076 27.5532C173.076 28.5732 172.806 29.5332 172.266 30.4332C171.726 31.3332 170.926 32.0632 169.866 32.6232C168.806 33.1832 167.556 33.4632 166.116 33.4632Z" fill="white"/>
<line x1="2.07974" y1="46.5098" x2="193.46" y2="46.5098" stroke="#E7C006" stroke-width="3" stroke-linecap="round"/>
</svg>
