<svg width="197" height="49" viewBox="0 0 197 49" fill="none" xmlns="http://www.w3.org/2000/svg">
<path d="M28.94 33.21C27.56 33.21 26.32 32.97 25.22 32.49C24.14 31.99 23.29 31.31 22.67 30.45C22.05 29.57 21.73 28.56 21.71 27.42H24.62C24.72 28.4 25.12 29.23 25.82 29.91C26.54 30.57 27.58 30.9 28.94 30.9C30.24 30.9 31.26 30.58 32 29.94C32.76 29.28 33.14 28.44 33.14 27.42C33.14 26.62 32.92 25.97 32.48 25.47C32.04 24.97 31.49 24.59 30.83 24.33C30.17 24.07 29.28 23.79 28.16 23.49C26.78 23.13 25.67 22.77 24.83 22.41C24.01 22.05 23.3 21.49 22.7 20.73C22.12 19.95 21.83 18.91 21.83 17.61C21.83 16.47 22.12 15.46 22.7 14.58C23.28 13.7 24.09 13.02 25.13 12.54C26.19 12.06 27.4 11.82 28.76 11.82C30.72 11.82 32.32 12.31 33.56 13.29C34.82 14.27 35.53 15.57 35.69 17.19H32.69C32.59 16.39 32.17 15.69 31.43 15.09C30.69 14.47 29.71 14.16 28.49 14.16C27.35 14.16 26.42 14.46 25.7 15.06C24.98 15.64 24.62 16.46 24.62 17.52C24.62 18.28 24.83 18.9 25.25 19.38C25.69 19.86 26.22 20.23 26.84 20.49C27.48 20.73 28.37 21.01 29.51 21.33C30.89 21.71 32 22.09 32.84 22.47C33.68 22.83 34.4 23.4 35 24.18C35.6 24.94 35.9 25.98 35.9 27.3C35.9 28.32 35.63 29.28 35.09 30.18C34.55 31.08 33.75 31.81 32.69 32.37C31.63 32.93 30.38 33.21 28.94 33.21ZM42.6474 14.31V21.3H50.2674V23.55H42.6474V30.75H51.1674V33H39.9174V12.06H51.1674V14.31H42.6474ZM66.3083 33L61.3283 24.45H58.0283V33H55.2983V12.09H62.0483C63.6283 12.09 64.9583 12.36 66.0383 12.9C67.1383 13.44 67.9583 14.17 68.4983 15.09C69.0383 16.01 69.3083 17.06 69.3083 18.24C69.3083 19.68 68.8883 20.95 68.0483 22.05C67.2283 23.15 65.9883 23.88 64.3283 24.24L69.5783 33H66.3083ZM58.0283 22.26H62.0483C63.5283 22.26 64.6383 21.9 65.3783 21.18C66.1183 20.44 66.4883 19.46 66.4883 18.24C66.4883 17 66.1183 16.04 65.3783 15.36C64.6583 14.68 63.5483 14.34 62.0483 14.34H58.0283V22.26ZM90.8302 12.09L82.9402 33H79.7902L71.9002 12.09H74.8102L81.3802 30.12L87.9502 12.09H90.8302ZM96.5537 12.09V33H93.8237V12.09H96.5537ZM100.186 22.53C100.186 20.49 100.646 18.66 101.566 17.04C102.486 15.4 103.736 14.12 105.316 13.2C106.916 12.28 108.686 11.82 110.626 11.82C112.906 11.82 114.896 12.37 116.596 13.47C118.296 14.57 119.536 16.13 120.316 18.15H117.046C116.466 16.89 115.626 15.92 114.526 15.24C113.446 14.56 112.146 14.22 110.626 14.22C109.166 14.22 107.856 14.56 106.696 15.24C105.536 15.92 104.626 16.89 103.966 18.15C103.306 19.39 102.976 20.85 102.976 22.53C102.976 24.19 103.306 25.65 103.966 26.91C104.626 28.15 105.536 29.11 106.696 29.79C107.856 30.47 109.166 30.81 110.626 30.81C112.146 30.81 113.446 30.48 114.526 29.82C115.626 29.14 116.466 28.17 117.046 26.91H120.316C119.536 28.91 118.296 30.46 116.596 31.56C114.896 32.64 112.906 33.18 110.626 33.18C108.686 33.18 106.916 32.73 105.316 31.83C103.736 30.91 102.486 29.64 101.566 28.02C100.646 26.4 100.186 24.57 100.186 22.53ZM127.11 12.09V33H124.38V12.09H127.11ZM141.243 33.21C139.303 33.21 137.533 32.76 135.933 31.86C134.333 30.94 133.063 29.67 132.123 28.05C131.203 26.41 130.743 24.57 130.743 22.53C130.743 20.49 131.203 18.66 132.123 17.04C133.063 15.4 134.333 14.13 135.933 13.23C137.533 12.31 139.303 11.85 141.243 11.85C143.203 11.85 144.983 12.31 146.583 13.23C148.183 14.13 149.443 15.39 150.363 17.01C151.283 18.63 151.743 20.47 151.743 22.53C151.743 24.59 151.283 26.43 150.363 28.05C149.443 29.67 148.183 30.94 146.583 31.86C144.983 32.76 143.203 33.21 141.243 33.21ZM141.243 30.84C142.703 30.84 144.013 30.5 145.173 29.82C146.353 29.14 147.273 28.17 147.933 26.91C148.613 25.65 148.953 24.19 148.953 22.53C148.953 20.85 148.613 19.39 147.933 18.15C147.273 16.89 146.363 15.92 145.203 15.24C144.043 14.56 142.723 14.22 141.243 14.22C139.763 14.22 138.443 14.56 137.283 15.24C136.123 15.92 135.203 16.89 134.523 18.15C133.863 19.39 133.533 20.85 133.533 22.53C133.533 24.19 133.863 25.65 134.523 26.91C135.203 28.17 136.123 29.14 137.283 29.82C138.463 30.5 139.783 30.84 141.243 30.84ZM161.977 33.21C160.597 33.21 159.357 32.97 158.257 32.49C157.177 31.99 156.327 31.31 155.707 30.45C155.087 29.57 154.767 28.56 154.747 27.42H157.657C157.757 28.4 158.157 29.23 158.857 29.91C159.577 30.57 160.617 30.9 161.977 30.9C163.277 30.9 164.297 30.58 165.037 29.94C165.797 29.28 166.177 28.44 166.177 27.42C166.177 26.62 165.957 25.97 165.517 25.47C165.077 24.97 164.527 24.59 163.867 24.33C163.207 24.07 162.317 23.79 161.197 23.49C159.817 23.13 158.707 22.77 157.867 22.41C157.047 22.05 156.337 21.49 155.737 20.73C155.157 19.95 154.867 18.91 154.867 17.61C154.867 16.47 155.157 15.46 155.737 14.58C156.317 13.7 157.127 13.02 158.167 12.54C159.227 12.06 160.437 11.82 161.797 11.82C163.757 11.82 165.357 12.31 166.597 13.29C167.857 14.27 168.567 15.57 168.727 17.19H165.727C165.627 16.39 165.207 15.69 164.467 15.09C163.727 14.47 162.747 14.16 161.527 14.16C160.387 14.16 159.457 14.46 158.737 15.06C158.017 15.64 157.657 16.46 157.657 17.52C157.657 18.28 157.867 18.9 158.287 19.38C158.727 19.86 159.257 20.23 159.877 20.49C160.517 20.73 161.407 21.01 162.547 21.33C163.927 21.71 165.037 22.09 165.877 22.47C166.717 22.83 167.437 23.4 168.037 24.18C168.637 24.94 168.937 25.98 168.937 27.3C168.937 28.32 168.667 29.28 168.127 30.18C167.587 31.08 166.787 31.81 165.727 32.37C164.667 32.93 163.417 33.21 161.977 33.21Z" fill="white"/>
<line x1="2.43884" y1="46.5098" x2="193.819" y2="46.5098" stroke="#E7C006" stroke-width="3" stroke-linecap="round"/>
</svg>
