<svg width="124" height="38" viewBox="0 0 124 38" fill="none" xmlns="http://www.w3.org/2000/svg">
<path d="M7.66338 28.175C6.51338 28.175 5.48005 27.975 4.56338 27.575C3.66338 27.1583 2.95505 26.5917 2.43838 25.875C1.92171 25.1417 1.65505 24.3 1.63838 23.35H4.06338C4.14671 24.1667 4.48005 24.8583 5.06338 25.425C5.66338 25.975 6.53005 26.25 7.66338 26.25C8.74671 26.25 9.59671 25.9833 10.2134 25.45C10.8467 24.9 11.1634 24.2 11.1634 23.35C11.1634 22.6833 10.98 22.1417 10.6134 21.725C10.2467 21.3083 9.78838 20.9917 9.23838 20.775C8.68838 20.5583 7.94671 20.325 7.01338 20.075C5.86338 19.775 4.93838 19.475 4.23838 19.175C3.55505 18.875 2.96338 18.4083 2.46338 17.775C1.98005 17.125 1.73838 16.2583 1.73838 15.175C1.73838 14.225 1.98005 13.3833 2.46338 12.65C2.94671 11.9167 3.62171 11.35 4.48838 10.95C5.37171 10.55 6.38005 10.35 7.51338 10.35C9.14671 10.35 10.48 10.7583 11.5134 11.575C12.5634 12.3917 13.155 13.475 13.2884 14.825H10.7884C10.705 14.1583 10.355 13.575 9.73838 13.075C9.12171 12.5583 8.30505 12.3 7.28838 12.3C6.33838 12.3 5.56338 12.55 4.96338 13.05C4.36338 13.5333 4.06338 14.2167 4.06338 15.1C4.06338 15.7333 4.23838 16.25 4.58838 16.65C4.95505 17.05 5.39671 17.3583 5.91338 17.575C6.44671 17.775 7.18838 18.0083 8.13838 18.275C9.28838 18.5917 10.2134 18.9083 10.9134 19.225C11.6134 19.525 12.2134 20 12.7134 20.65C13.2134 21.2833 13.4634 22.15 13.4634 23.25C13.4634 24.1 13.2384 24.9 12.7884 25.65C12.3384 26.4 11.6717 27.0083 10.7884 27.475C9.90505 27.9417 8.86338 28.175 7.66338 28.175ZM19.0862 10.575V28H16.8112V10.575H19.0862ZM40.6386 10.7V28H38.3636V15.1L32.6136 28H31.0136L25.2386 15.075V28H22.9636V10.7H25.4136L31.8136 25L38.2136 10.7H40.6386ZM53.2218 19.025C53.8551 19.125 54.4301 19.3833 54.9468 19.8C55.4801 20.2167 55.8968 20.7333 56.1968 21.35C56.5134 21.9667 56.6718 22.625 56.6718 23.325C56.6718 24.2083 56.4468 25.0083 55.9968 25.725C55.5468 26.425 54.8884 26.9833 54.0218 27.4C53.1718 27.8 52.1634 28 50.9968 28H44.4968V10.575H50.7468C51.9301 10.575 52.9384 10.775 53.7718 11.175C54.6051 11.5583 55.2301 12.0833 55.6468 12.75C56.0634 13.4167 56.2718 14.1667 56.2718 15C56.2718 16.0333 55.9884 16.8917 55.4218 17.575C54.8718 18.2417 54.1384 18.725 53.2218 19.025ZM46.7718 18.1H50.5968C51.6634 18.1 52.4884 17.85 53.0718 17.35C53.6551 16.85 53.9468 16.1583 53.9468 15.275C53.9468 14.3917 53.6551 13.7 53.0718 13.2C52.4884 12.7 51.6468 12.45 50.5468 12.45H46.7718V18.1ZM50.7968 26.125C51.9301 26.125 52.8134 25.8583 53.4468 25.325C54.0801 24.7917 54.3968 24.05 54.3968 23.1C54.3968 22.1333 54.0634 21.375 53.3968 20.825C52.7301 20.2583 51.8384 19.975 50.7218 19.975H46.7718V26.125H50.7968ZM67.7288 28.175C66.1121 28.175 64.6371 27.8 63.3038 27.05C61.9705 26.2833 60.9121 25.225 60.1288 23.875C59.3621 22.5083 58.9788 20.975 58.9788 19.275C58.9788 17.575 59.3621 16.05 60.1288 14.7C60.9121 13.3333 61.9705 12.275 63.3038 11.525C64.6371 10.7583 66.1121 10.375 67.7288 10.375C69.3621 10.375 70.8455 10.7583 72.1788 11.525C73.5121 12.275 74.5621 13.325 75.3288 14.675C76.0955 16.025 76.4788 17.5583 76.4788 19.275C76.4788 20.9917 76.0955 22.525 75.3288 23.875C74.5621 25.225 73.5121 26.2833 72.1788 27.05C70.8455 27.8 69.3621 28.175 67.7288 28.175ZM67.7288 26.2C68.9455 26.2 70.0371 25.9167 71.0038 25.35C71.9871 24.7833 72.7538 23.975 73.3038 22.925C73.8705 21.875 74.1538 20.6583 74.1538 19.275C74.1538 17.875 73.8705 16.6583 73.3038 15.625C72.7538 14.575 71.9955 13.7667 71.0288 13.2C70.0621 12.6333 68.9621 12.35 67.7288 12.35C66.4955 12.35 65.3955 12.6333 64.4288 13.2C63.4621 13.7667 62.6955 14.575 62.1288 15.625C61.5788 16.6583 61.3038 17.875 61.3038 19.275C61.3038 20.6583 61.5788 21.875 62.1288 22.925C62.6955 23.975 63.4621 24.7833 64.4288 25.35C65.4121 25.9167 66.5121 26.2 67.7288 26.2ZM81.7571 26.15H87.8571V28H79.4821V10.575H81.7571V26.15ZM98.1731 28.175C96.5565 28.175 95.0815 27.8 93.7481 27.05C92.4148 26.2833 91.3565 25.225 90.5731 23.875C89.8065 22.5083 89.4231 20.975 89.4231 19.275C89.4231 17.575 89.8065 16.05 90.5731 14.7C91.3565 13.3333 92.4148 12.275 93.7481 11.525C95.0815 10.7583 96.5565 10.375 98.1731 10.375C99.8065 10.375 101.29 10.7583 102.623 11.525C103.956 12.275 105.006 13.325 105.773 14.675C106.54 16.025 106.923 17.5583 106.923 19.275C106.923 20.9917 106.54 22.525 105.773 23.875C105.006 25.225 103.956 26.2833 102.623 27.05C101.29 27.8 99.8065 28.175 98.1731 28.175ZM98.1731 26.2C99.3898 26.2 100.481 25.9167 101.448 25.35C102.431 24.7833 103.198 23.975 103.748 22.925C104.315 21.875 104.598 20.6583 104.598 19.275C104.598 17.875 104.315 16.6583 103.748 15.625C103.198 14.575 102.44 13.7667 101.473 13.2C100.506 12.6333 99.4065 12.35 98.1731 12.35C96.9398 12.35 95.8398 12.6333 94.8731 13.2C93.9065 13.7667 93.1398 14.575 92.5731 15.625C92.0231 16.6583 91.7481 17.875 91.7481 19.275C91.7481 20.6583 92.0231 21.875 92.5731 22.925C93.1398 23.975 93.9065 24.7833 94.8731 25.35C95.8565 25.9167 96.9565 26.2 98.1731 26.2ZM115.451 28.175C114.301 28.175 113.268 27.975 112.351 27.575C111.451 27.1583 110.743 26.5917 110.226 25.875C109.71 25.1417 109.443 24.3 109.426 23.35H111.851C111.935 24.1667 112.268 24.8583 112.851 25.425C113.451 25.975 114.318 26.25 115.451 26.25C116.535 26.25 117.385 25.9833 118.001 25.45C118.635 24.9 118.951 24.2 118.951 23.35C118.951 22.6833 118.768 22.1417 118.401 21.725C118.035 21.3083 117.576 20.9917 117.026 20.775C116.476 20.5583 115.735 20.325 114.801 20.075C113.651 19.775 112.726 19.475 112.026 19.175C111.343 18.875 110.751 18.4083 110.251 17.775C109.768 17.125 109.526 16.2583 109.526 15.175C109.526 14.225 109.768 13.3833 110.251 12.65C110.735 11.9167 111.41 11.35 112.276 10.95C113.16 10.55 114.168 10.35 115.301 10.35C116.935 10.35 118.268 10.7583 119.301 11.575C120.351 12.3917 120.943 13.475 121.076 14.825H118.576C118.493 14.1583 118.143 13.575 117.526 13.075C116.91 12.5583 116.093 12.3 115.076 12.3C114.126 12.3 113.351 12.55 112.751 13.05C112.151 13.5333 111.851 14.2167 111.851 15.1C111.851 15.7333 112.026 16.25 112.376 16.65C112.743 17.05 113.185 17.3583 113.701 17.575C114.235 17.775 114.976 18.0083 115.926 18.275C117.076 18.5917 118.001 18.9083 118.701 19.225C119.401 19.525 120.001 20 120.501 20.65C121.001 21.2833 121.251 22.15 121.251 23.25C121.251 24.1 121.026 24.9 120.576 25.65C120.126 26.4 119.46 27.0083 118.576 27.475C117.693 27.9417 116.651 28.175 115.451 28.175Z" fill="#E7C006"/>
<line x1="1.5" y1="34.2566" x2="121.5" y2="34.2566" stroke="white" stroke-width="3" stroke-linecap="round"/>
</svg>
