<svg width="357" height="50" viewBox="0 0 357 50" fill="none" xmlns="http://www.w3.org/2000/svg">
<path d="M9.25116 33.4632C7.87116 33.4632 6.63116 33.2232 5.53116 32.7432C4.45116 32.2432 3.60116 31.5632 2.98116 30.7032C2.36116 29.8232 2.04116 28.8132 2.02116 27.6732H4.93116C5.03116 28.6532 5.43116 29.4832 6.13116 30.1632C6.85116 30.8232 7.89116 31.1532 9.25116 31.1532C10.5512 31.1532 11.5712 30.8332 12.3112 30.1932C13.0712 29.5332 13.4512 28.6932 13.4512 27.6732C13.4512 26.8732 13.2312 26.2232 12.7912 25.7232C12.3512 25.2232 11.8012 24.8432 11.1412 24.5832C10.4812 24.3232 9.59116 24.0432 8.47116 23.7432C7.09116 23.3832 5.98116 23.0232 5.14116 22.6632C4.32116 22.3032 3.61116 21.7432 3.01116 20.9832C2.43116 20.2032 2.14116 19.1632 2.14116 17.8632C2.14116 16.7232 2.43116 15.7132 3.01116 14.8332C3.59116 13.9532 4.40116 13.2732 5.44116 12.7932C6.50116 12.3132 7.71116 12.0732 9.07116 12.0732C11.0312 12.0732 12.6312 12.5632 13.8712 13.5432C15.1312 14.5232 15.8412 15.8232 16.0012 17.4432H13.0012C12.9012 16.6432 12.4812 15.9432 11.7412 15.3432C11.0012 14.7232 10.0212 14.4132 8.80116 14.4132C7.66116 14.4132 6.73116 14.7132 6.01116 15.3132C5.29116 15.8932 4.93116 16.7132 4.93116 17.7732C4.93116 18.5332 5.14116 19.1532 5.56116 19.6332C6.00116 20.1132 6.53116 20.4832 7.15116 20.7432C7.79116 20.9832 8.68116 21.2632 9.82116 21.5832C11.2012 21.9632 12.3112 22.3432 13.1512 22.7232C13.9912 23.0832 14.7112 23.6532 15.3112 24.4332C15.9112 25.1932 16.2112 26.2332 16.2112 27.5532C16.2112 28.5732 15.9412 29.5332 15.4012 30.4332C14.8612 31.3332 14.0612 32.0632 13.0012 32.6232C11.9412 33.1832 10.6912 33.4632 9.25116 33.4632ZM22.9586 12.3432V33.2532H20.2286V12.3432H22.9586ZM48.8214 12.4932V33.2532H46.0914V17.7732L39.1914 33.2532H37.2714L30.3414 17.7432V33.2532H27.6114V12.4932H30.5514L38.2314 29.6532L45.9114 12.4932H48.8214ZM63.9212 22.4832C64.6812 22.6032 65.3712 22.9132 65.9912 23.4132C66.6312 23.9132 67.1312 24.5332 67.4912 25.2732C67.8712 26.0132 68.0612 26.8032 68.0612 27.6432C68.0612 28.7032 67.7912 29.6632 67.2512 30.5232C66.7112 31.3632 65.9212 32.0332 64.8812 32.5332C63.8612 33.0132 62.6512 33.2532 61.2512 33.2532H53.4512V12.3432H60.9512C62.3712 12.3432 63.5812 12.5832 64.5812 13.0632C65.5812 13.5232 66.3312 14.1532 66.8312 14.9532C67.3312 15.7532 67.5812 16.6532 67.5812 17.6532C67.5812 18.8932 67.2412 19.9232 66.5612 20.7432C65.9012 21.5432 65.0212 22.1232 63.9212 22.4832ZM56.1812 21.3732H60.7712C62.0512 21.3732 63.0412 21.0732 63.7412 20.4732C64.4412 19.8732 64.7912 19.0432 64.7912 17.9832C64.7912 16.9232 64.4412 16.0932 63.7412 15.4932C63.0412 14.8932 62.0312 14.5932 60.7112 14.5932H56.1812V21.3732ZM61.0112 31.0032C62.3712 31.0032 63.4312 30.6832 64.1912 30.0432C64.9512 29.4032 65.3312 28.5132 65.3312 27.3732C65.3312 26.2132 64.9312 25.3032 64.1312 24.6432C63.3312 23.9632 62.2612 23.6232 60.9212 23.6232H56.1812V31.0032H61.0112ZM81.3297 33.4632C79.3897 33.4632 77.6197 33.0132 76.0197 32.1132C74.4197 31.1932 73.1497 29.9232 72.2097 28.3032C71.2897 26.6632 70.8297 24.8232 70.8297 22.7832C70.8297 20.7432 71.2897 18.9132 72.2097 17.2932C73.1497 15.6532 74.4197 14.3832 76.0197 13.4832C77.6197 12.5632 79.3897 12.1032 81.3297 12.1032C83.2897 12.1032 85.0697 12.5632 86.6697 13.4832C88.2697 14.3832 89.5297 15.6432 90.4497 17.2632C91.3697 18.8832 91.8297 20.7232 91.8297 22.7832C91.8297 24.8432 91.3697 26.6832 90.4497 28.3032C89.5297 29.9232 88.2697 31.1932 86.6697 32.1132C85.0697 33.0132 83.2897 33.4632 81.3297 33.4632ZM81.3297 31.0932C82.7897 31.0932 84.0997 30.7532 85.2597 30.0732C86.4397 29.3932 87.3597 28.4232 88.0197 27.1632C88.6997 25.9032 89.0397 24.4432 89.0397 22.7832C89.0397 21.1032 88.6997 19.6432 88.0197 18.4032C87.3597 17.1432 86.4497 16.1732 85.2897 15.4932C84.1297 14.8132 82.8097 14.4732 81.3297 14.4732C79.8497 14.4732 78.5297 14.8132 77.3697 15.4932C76.2097 16.1732 75.2897 17.1432 74.6097 18.4032C73.9497 19.6432 73.6197 21.1032 73.6197 22.7832C73.6197 24.4432 73.9497 25.9032 74.6097 27.1632C75.2897 28.4232 76.2097 29.3932 77.3697 30.0732C78.5497 30.7532 79.8697 31.0932 81.3297 31.0932ZM98.1637 31.0332H105.484V33.2532H95.4337V12.3432H98.1637V31.0332ZM117.863 33.4632C115.923 33.4632 114.153 33.0132 112.553 32.1132C110.953 31.1932 109.683 29.9232 108.743 28.3032C107.823 26.6632 107.363 24.8232 107.363 22.7832C107.363 20.7432 107.823 18.9132 108.743 17.2932C109.683 15.6532 110.953 14.3832 112.553 13.4832C114.153 12.5632 115.923 12.1032 117.863 12.1032C119.823 12.1032 121.603 12.5632 123.203 13.4832C124.803 14.3832 126.063 15.6432 126.983 17.2632C127.903 18.8832 128.363 20.7232 128.363 22.7832C128.363 24.8432 127.903 26.6832 126.983 28.3032C126.063 29.9232 124.803 31.1932 123.203 32.1132C121.603 33.0132 119.823 33.4632 117.863 33.4632ZM117.863 31.0932C119.323 31.0932 120.633 30.7532 121.793 30.0732C122.973 29.3932 123.893 28.4232 124.553 27.1632C125.233 25.9032 125.573 24.4432 125.573 22.7832C125.573 21.1032 125.233 19.6432 124.553 18.4032C123.893 17.1432 122.983 16.1732 121.823 15.4932C120.663 14.8132 119.343 14.4732 117.863 14.4732C116.383 14.4732 115.063 14.8132 113.903 15.4932C112.743 16.1732 111.823 17.1432 111.143 18.4032C110.483 19.6432 110.153 21.1032 110.153 22.7832C110.153 24.4432 110.483 25.9032 111.143 27.1632C111.823 28.4232 112.743 29.3932 113.903 30.0732C115.083 30.7532 116.403 31.0932 117.863 31.0932ZM138.597 33.4632C137.217 33.4632 135.977 33.2232 134.877 32.7432C133.797 32.2432 132.947 31.5632 132.327 30.7032C131.707 29.8232 131.387 28.8132 131.367 27.6732H134.277C134.377 28.6532 134.777 29.4832 135.477 30.1632C136.197 30.8232 137.237 31.1532 138.597 31.1532C139.897 31.1532 140.917 30.8332 141.657 30.1932C142.417 29.5332 142.797 28.6932 142.797 27.6732C142.797 26.8732 142.577 26.2232 142.137 25.7232C141.697 25.2232 141.147 24.8432 140.487 24.5832C139.827 24.3232 138.937 24.0432 137.817 23.7432C136.437 23.3832 135.327 23.0232 134.487 22.6632C133.667 22.3032 132.957 21.7432 132.357 20.9832C131.777 20.2032 131.487 19.1632 131.487 17.8632C131.487 16.7232 131.777 15.7132 132.357 14.8332C132.937 13.9532 133.747 13.2732 134.787 12.7932C135.847 12.3132 137.057 12.0732 138.417 12.0732C140.377 12.0732 141.977 12.5632 143.217 13.5432C144.477 14.5232 145.187 15.8232 145.347 17.4432H142.347C142.247 16.6432 141.827 15.9432 141.087 15.3432C140.347 14.7232 139.367 14.4132 138.147 14.4132C137.007 14.4132 136.077 14.7132 135.357 15.3132C134.637 15.8932 134.277 16.7132 134.277 17.7732C134.277 18.5332 134.487 19.1532 134.907 19.6332C135.347 20.1132 135.877 20.4832 136.497 20.7432C137.137 20.9832 138.027 21.2632 139.167 21.5832C140.547 21.9632 141.657 22.3432 142.497 22.7232C143.337 23.0832 144.057 23.6532 144.657 24.4332C145.257 25.1932 145.557 26.2332 145.557 27.5532C145.557 28.5732 145.287 29.5332 144.747 30.4332C144.207 31.3332 143.407 32.0632 142.347 32.6232C141.287 33.1832 140.037 33.4632 138.597 33.4632Z" fill="white"/>
<line x1="2.27954" y1="47.5098" x2="180.602" y2="47.5098" stroke="#E7C006" stroke-width="3" stroke-linecap="round"/>
</svg>
