<svg width="100" height="38" viewBox="0 0 100 38" fill="none" xmlns="http://www.w3.org/2000/svg">
<path d="M15.3384 15.625C14.855 14.6083 14.155 13.825 13.2384 13.275C12.3217 12.7083 11.255 12.425 10.0384 12.425C8.82171 12.425 7.72171 12.7083 6.73838 13.275C5.77171 13.825 5.00505 14.625 4.43838 15.675C3.88838 16.7083 3.61338 17.9083 3.61338 19.275C3.61338 20.6417 3.88838 21.8417 4.43838 22.875C5.00505 23.9083 5.77171 24.7083 6.73838 25.275C7.72171 25.825 8.82171 26.1 10.0384 26.1C11.7384 26.1 13.1384 25.5917 14.2384 24.575C15.3384 23.5583 15.98 22.1833 16.1634 20.45H9.21338V18.6H18.5884V20.35C18.455 21.7833 18.005 23.1 17.2384 24.3C16.4717 25.4833 15.4634 26.425 14.2134 27.125C12.9634 27.8083 11.5717 28.15 10.0384 28.15C8.42171 28.15 6.94671 27.775 5.61338 27.025C4.28005 26.2583 3.22171 25.2 2.43838 23.85C1.67171 22.5 1.28838 20.975 1.28838 19.275C1.28838 17.575 1.67171 16.05 2.43838 14.7C3.22171 13.3333 4.28005 12.275 5.61338 11.525C6.94671 10.7583 8.42171 10.375 10.0384 10.375C11.8884 10.375 13.5217 10.8333 14.9384 11.75C16.3717 12.6667 17.4134 13.9583 18.0634 15.625H15.3384ZM31.8964 24.125H24.2964L22.8964 28H20.4964L26.7964 10.675H29.4214L35.6964 28H33.2964L31.8964 24.125ZM31.2464 22.275L28.0964 13.475L24.9464 22.275H31.2464ZM40.7171 26.15H46.8171V28H38.4421V10.575H40.7171V26.15ZM51.5081 12.425V18.25H57.8581V20.125H51.5081V26.125H58.6081V28H49.2331V10.55H58.6081V12.425H51.5081ZM71.2255 28L67.0755 20.875H64.3255V28H62.0505V10.575H67.6755C68.9922 10.575 70.1005 10.8 71.0005 11.25C71.9172 11.7 72.6005 12.3083 73.0505 13.075C73.5005 13.8417 73.7255 14.7167 73.7255 15.7C73.7255 16.9 73.3755 17.9583 72.6755 18.875C71.9922 19.7917 70.9588 20.4 69.5755 20.7L73.9505 28H71.2255ZM64.3255 19.05H67.6755C68.9088 19.05 69.8338 18.75 70.4505 18.15C71.0672 17.5333 71.3755 16.7167 71.3755 15.7C71.3755 14.6667 71.0672 13.8667 70.4505 13.3C69.8505 12.7333 68.9255 12.45 67.6755 12.45H64.3255V19.05ZM79.5354 10.575V28H77.2604V10.575H79.5354ZM93.7128 24.125H86.1128L84.7128 28H82.3128L88.6128 10.675H91.2378L97.5128 28H95.1128L93.7128 24.125ZM93.0628 22.275L89.9128 13.475L86.7628 22.275H93.0628Z" fill="white"/>
<line x1="1.5" y1="34.2566" x2="97.5" y2="34.2566" stroke="#E7C006" stroke-width="3" stroke-linecap="round"/>
</svg>
