<svg width="127" height="38" viewBox="0 0 127 38" fill="none" xmlns="http://www.w3.org/2000/svg">
<path d="M7.66338 28.175C6.51338 28.175 5.48005 27.975 4.56338 27.575C3.66338 27.1583 2.95505 26.5917 2.43838 25.875C1.92171 25.1417 1.65505 24.3 1.63838 23.35H4.06338C4.14671 24.1667 4.48005 24.8583 5.06338 25.425C5.66338 25.975 6.53005 26.25 7.66338 26.25C8.74671 26.25 9.59671 25.9833 10.2134 25.45C10.8467 24.9 11.1634 24.2 11.1634 23.35C11.1634 22.6833 10.98 22.1417 10.6134 21.725C10.2467 21.3083 9.78838 20.9917 9.23838 20.775C8.68838 20.5583 7.94671 20.325 7.01338 20.075C5.86338 19.775 4.93838 19.475 4.23838 19.175C3.55505 18.875 2.96338 18.4083 2.46338 17.775C1.98005 17.125 1.73838 16.2583 1.73838 15.175C1.73838 14.225 1.98005 13.3833 2.46338 12.65C2.94671 11.9167 3.62171 11.35 4.48838 10.95C5.37171 10.55 6.38005 10.35 7.51338 10.35C9.14671 10.35 10.48 10.7583 11.5134 11.575C12.5634 12.3917 13.155 13.475 13.2884 14.825H10.7884C10.705 14.1583 10.355 13.575 9.73838 13.075C9.12171 12.5583 8.30505 12.3 7.28838 12.3C6.33838 12.3 5.56338 12.55 4.96338 13.05C4.36338 13.5333 4.06338 14.2167 4.06338 15.1C4.06338 15.7333 4.23838 16.25 4.58838 16.65C4.95505 17.05 5.39671 17.3583 5.91338 17.575C6.44671 17.775 7.18838 18.0083 8.13838 18.275C9.28838 18.5917 10.2134 18.9083 10.9134 19.225C11.6134 19.525 12.2134 20 12.7134 20.65C13.2134 21.2833 13.4634 22.15 13.4634 23.25C13.4634 24.1 13.2384 24.9 12.7884 25.65C12.3384 26.4 11.6717 27.0083 10.7884 27.475C9.90505 27.9417 8.86338 28.175 7.66338 28.175ZM19.0862 12.425V18.25H25.4362V20.125H19.0862V26.125H26.1862V28H16.8112V10.55H26.1862V12.425H19.0862ZM38.8036 28L34.6536 20.875H31.9036V28H29.6286V10.575H35.2536C36.5703 10.575 37.6786 10.8 38.5786 11.25C39.4953 11.7 40.1786 12.3083 40.6286 13.075C41.0786 13.8417 41.3036 14.7167 41.3036 15.7C41.3036 16.9 40.9536 17.9583 40.2536 18.875C39.5703 19.7917 38.5369 20.4 37.1536 20.7L41.5286 28H38.8036ZM31.9036 19.05H35.2536C36.4869 19.05 37.4119 18.75 38.0286 18.15C38.6453 17.5333 38.9536 16.7167 38.9536 15.7C38.9536 14.6667 38.6453 13.8667 38.0286 13.3C37.4286 12.7333 36.5036 12.45 35.2536 12.45H31.9036V19.05ZM59.2386 10.575L52.6636 28H50.0386L43.4636 10.575H45.8886L51.3636 25.6L56.8386 10.575H59.2386ZM64.0081 10.575V28H61.7331V10.575H64.0081ZM67.0354 19.275C67.0354 17.575 67.4188 16.05 68.1854 14.7C68.9521 13.3333 69.9938 12.2667 71.3104 11.5C72.6438 10.7333 74.1188 10.35 75.7355 10.35C77.6354 10.35 79.2938 10.8083 80.7105 11.725C82.1271 12.6417 83.1604 13.9417 83.8105 15.625H81.0854C80.6021 14.575 79.9021 13.7667 78.9854 13.2C78.0854 12.6333 77.0021 12.35 75.7355 12.35C74.5188 12.35 73.4271 12.6333 72.4604 13.2C71.4938 13.7667 70.7354 14.575 70.1854 15.625C69.6354 16.6583 69.3604 17.875 69.3604 19.275C69.3604 20.6583 69.6354 21.875 70.1854 22.925C70.7354 23.9583 71.4938 24.7583 72.4604 25.325C73.4271 25.8917 74.5188 26.175 75.7355 26.175C77.0021 26.175 78.0854 25.9 78.9854 25.35C79.9021 24.7833 80.6021 23.975 81.0854 22.925H83.8105C83.1604 24.5917 82.1271 25.8833 80.7105 26.8C79.2938 27.7 77.6354 28.15 75.7355 28.15C74.1188 28.15 72.6438 27.775 71.3104 27.025C69.9938 26.2583 68.9521 25.2 68.1854 23.85C67.4188 22.5 67.0354 20.975 67.0354 19.275ZM89.472 10.575V28H87.197V10.575H89.472ZM101.249 28.175C99.6326 28.175 98.1576 27.8 96.8243 27.05C95.491 26.2833 94.4326 25.225 93.6493 23.875C92.8826 22.5083 92.4993 20.975 92.4993 19.275C92.4993 17.575 92.8826 16.05 93.6493 14.7C94.4326 13.3333 95.491 12.275 96.8243 11.525C98.1576 10.7583 99.6326 10.375 101.249 10.375C102.883 10.375 104.366 10.7583 105.699 11.525C107.033 12.275 108.083 13.325 108.849 14.675C109.616 16.025 109.999 17.5583 109.999 19.275C109.999 20.9917 109.616 22.525 108.849 23.875C108.083 25.225 107.033 26.2833 105.699 27.05C104.366 27.8 102.883 28.175 101.249 28.175ZM101.249 26.2C102.466 26.2 103.558 25.9167 104.524 25.35C105.508 24.7833 106.274 23.975 106.824 22.925C107.391 21.875 107.674 20.6583 107.674 19.275C107.674 17.875 107.391 16.6583 106.824 15.625C106.274 14.575 105.516 13.7667 104.549 13.2C103.583 12.6333 102.483 12.35 101.249 12.35C100.016 12.35 98.916 12.6333 97.9493 13.2C96.9826 13.7667 96.216 14.575 95.6493 15.625C95.0993 16.6583 94.8243 17.875 94.8243 19.275C94.8243 20.6583 95.0993 21.875 95.6493 22.925C96.216 23.975 96.9826 24.7833 97.9493 25.35C98.9327 25.9167 100.033 26.2 101.249 26.2ZM118.528 28.175C117.378 28.175 116.344 27.975 115.428 27.575C114.528 27.1583 113.819 26.5917 113.303 25.875C112.786 25.1417 112.519 24.3 112.503 23.35H114.928C115.011 24.1667 115.344 24.8583 115.928 25.425C116.528 25.975 117.394 26.25 118.528 26.25C119.611 26.25 120.461 25.9833 121.078 25.45C121.711 24.9 122.028 24.2 122.028 23.35C122.028 22.6833 121.844 22.1417 121.478 21.725C121.111 21.3083 120.653 20.9917 120.103 20.775C119.553 20.5583 118.811 20.325 117.878 20.075C116.728 19.775 115.803 19.475 115.103 19.175C114.419 18.875 113.828 18.4083 113.328 17.775C112.844 17.125 112.603 16.2583 112.603 15.175C112.603 14.225 112.844 13.3833 113.328 12.65C113.811 11.9167 114.486 11.35 115.353 10.95C116.236 10.55 117.244 10.35 118.378 10.35C120.011 10.35 121.344 10.7583 122.378 11.575C123.428 12.3917 124.019 13.475 124.153 14.825H121.653C121.569 14.1583 121.219 13.575 120.603 13.075C119.986 12.5583 119.169 12.3 118.153 12.3C117.203 12.3 116.428 12.55 115.828 13.05C115.228 13.5333 114.928 14.2167 114.928 15.1C114.928 15.7333 115.103 16.25 115.453 16.65C115.819 17.05 116.261 17.3583 116.778 17.575C117.311 17.775 118.053 18.0083 119.003 18.275C120.153 18.5917 121.078 18.9083 121.778 19.225C122.478 19.525 123.078 20 123.578 20.65C124.078 21.2833 124.328 22.15 124.328 23.25C124.328 24.1 124.103 24.9 123.653 25.65C123.203 26.4 122.536 27.0083 121.653 27.475C120.769 27.9417 119.728 28.175 118.528 28.175Z" fill="#E7C006"/>
<line x1="1.5" y1="34.2566" x2="124.5" y2="34.2566" stroke="white" stroke-width="3" stroke-linecap="round"/>
</svg>
