<svg width="419" height="159" viewBox="0 0 419 159" fill="none" xmlns="http://www.w3.org/2000/svg">
<g filter="url(#filter0_d_98_2)">
<path d="M72.65 70.525C70.6833 70.525 68.9167 69.95 67.35 68.8C65.7833 67.65 64.5417 66.0833 63.625 64.1C62.725 62.1 62.275 59.8417 62.275 57.325C62.275 54.5583 62.825 52.125 63.925 50.025C65.025 47.9083 66.5583 46.2583 68.525 45.075C70.4917 43.875 72.7667 43.275 75.35 43.275C77.1833 43.275 78.9833 43.55 80.75 44.1V33.475L77.05 32.05V31.35L85.225 28.925H85.8V66.025L89.225 66.8V67.4L81.5 70.525H81.1V66.4L80.875 66.325C79.8417 67.7083 78.6167 68.7583 77.2 69.475C75.8 70.175 74.2833 70.525 72.65 70.525ZM74.85 67.225C76.0833 67.225 77.225 66.9667 78.275 66.45C79.3417 65.9333 80.1667 65.2333 80.75 64.35V50.45C80.75 48.6667 80.2833 47.3 79.35 46.35C78.4333 45.4 77.1083 44.925 75.375 44.925C73.1417 44.925 71.3333 45.9833 69.95 48.1C68.5833 50.2167 67.9 53.025 67.9 56.525C67.9 59.825 68.5167 62.4333 69.75 64.35C70.9833 66.2667 72.6833 67.225 74.85 67.225ZM102.494 70.525C99.9938 70.525 98.1688 69.95 97.0188 68.8C95.8688 67.6333 95.2938 65.95 95.2938 63.75V45.65L91.5938 44.875V43.775H100.394V61.75C100.394 63.9333 100.777 65.4333 101.544 66.25C102.327 67.0667 103.56 67.475 105.244 67.475C106.394 67.475 107.519 67.175 108.619 66.575C109.719 65.975 110.735 65.0333 111.669 63.75V65.75C110.402 67.3 108.977 68.4833 107.394 69.3C105.81 70.1167 104.177 70.525 102.494 70.525ZM111.494 70.525V65.6L111.219 65.5V45.65L107.544 44.875V43.775H116.319V66.2L119.719 67.4V68.075L111.919 70.525H111.494ZM135.154 70.525C132.888 70.525 130.871 69.975 129.104 68.875C127.354 67.7583 125.979 66.2167 124.979 64.25C123.996 62.2667 123.504 59.9833 123.504 57.4C123.504 54.6667 124.046 52.2417 125.129 50.125C126.229 47.9917 127.738 46.3167 129.654 45.1C131.588 43.8833 133.796 43.275 136.279 43.275C138.029 43.275 139.596 43.5667 140.979 44.15C142.363 44.7167 143.454 45.475 144.254 46.425C145.071 47.3583 145.479 48.3833 145.479 49.5C145.479 50.4167 145.246 51.125 144.779 51.625C144.313 52.125 143.679 52.375 142.879 52.375C142.013 52.375 141.363 52.1167 140.929 51.6C140.496 51.0833 140.213 50.275 140.079 49.175C139.896 47.525 139.538 46.4167 139.004 45.85C138.471 45.2833 137.613 45 136.429 45C134.063 45 132.221 46.0167 130.904 48.05C129.604 50.0667 128.954 52.75 128.954 56.1C128.954 59.4667 129.638 62.05 131.004 63.85C132.371 65.65 134.313 66.55 136.829 66.55C138.496 66.55 139.988 66.2417 141.304 65.625C142.621 65.0083 143.796 63.9833 144.829 62.55L145.829 63.125C144.913 65.4917 143.538 67.3167 141.704 68.6C139.871 69.8833 137.688 70.525 135.154 70.525ZM155.899 70.525C154.115 70.525 152.665 69.9667 151.549 68.85C150.449 67.7333 149.899 66.2833 149.899 64.5C149.899 63.0333 150.349 61.7667 151.249 60.7C152.149 59.6333 153.599 58.7 155.599 57.9C157.615 57.0833 160.274 56.3417 163.574 55.675V51C163.574 48.8833 163.282 47.4 162.699 46.55C162.132 45.7 161.149 45.275 159.749 45.275C158.365 45.275 157.265 45.6083 156.449 46.275C155.632 46.9417 155.224 47.8417 155.224 48.975C155.224 49.2917 155.24 49.6083 155.274 49.925C155.324 50.225 155.349 50.5167 155.349 50.8C155.349 51.65 155.09 52.35 154.574 52.9C154.074 53.45 153.432 53.725 152.649 53.725C151.932 53.725 151.349 53.4917 150.899 53.025C150.465 52.5583 150.249 51.95 150.249 51.2C150.249 50.1167 150.715 49.0083 151.649 47.875C152.599 46.725 153.849 45.7417 155.399 44.925C157.465 43.825 159.707 43.275 162.124 43.275C163.574 43.275 164.799 43.5 165.799 43.95C166.815 44.4 167.549 45.0417 167.999 45.875C168.265 46.4417 168.44 47.1583 168.524 48.025C168.624 48.8917 168.674 50.3417 168.674 52.375V63.55C168.674 65.1667 168.799 66.2667 169.049 66.85C169.315 67.4333 169.807 67.725 170.524 67.725C171.34 67.725 172.132 67.2583 172.899 66.325L173.799 67.175C172.982 68.3583 172.149 69.2167 171.299 69.75C170.465 70.2667 169.49 70.525 168.374 70.525C167.024 70.525 165.974 70.1583 165.224 69.425C164.474 68.6917 163.974 67.575 163.724 66.075H163.574C162.624 67.4417 161.474 68.525 160.124 69.325C158.774 70.125 157.365 70.525 155.899 70.525ZM158.399 67.35C159.432 67.35 160.399 67.0833 161.299 66.55C162.199 66 162.957 65.2417 163.574 64.275V57.225C161.34 57.6583 159.582 58.1333 158.299 58.65C157.032 59.1667 156.132 59.8 155.599 60.55C155.082 61.2833 154.824 62.2083 154.824 63.325C154.824 64.6083 155.124 65.6 155.724 66.3C156.34 67 157.232 67.35 158.399 67.35ZM175.466 70V68.9L179.216 68.125V47.75L175.566 46.375V45.65L183.566 43.25H184.116V48.65L184.316 48.9V68.125L189.466 68.9V70H175.466ZM183.941 50.95L183.841 48.9C185.074 47.0833 186.299 45.6833 187.516 44.7C188.749 43.7167 189.899 43.225 190.966 43.225C191.883 43.225 192.658 43.5417 193.291 44.175C193.924 44.7917 194.241 45.5417 194.241 46.425C194.241 47.2417 193.966 47.9333 193.416 48.5C192.866 49.05 192.183 49.325 191.366 49.325C190.533 49.325 189.883 49.0167 189.416 48.4C189.083 48.0167 188.799 47.7583 188.566 47.625C188.333 47.475 188.066 47.4 187.766 47.4C187.283 47.4 186.674 47.725 185.941 48.375C185.224 49.0083 184.558 49.8667 183.941 50.95Z" fill="white"/>
</g>
<g filter="url(#filter1_d_98_2)">
<path d="M130.03 102.27C129.21 102.27 128.41 102.15 127.63 101.91C126.86 101.67 126.045 101.295 125.185 100.785L124 102H123.385L122.83 94.395L123.64 94.23C124.24 96.58 125.03 98.285 126.01 99.345C127 100.405 128.305 100.935 129.925 100.935C131.285 100.935 132.36 100.61 133.15 99.96C133.94 99.3 134.335 98.41 134.335 97.29C134.335 96.41 134.06 95.625 133.51 94.935C132.97 94.235 132.08 93.535 130.84 92.835L128.545 91.62C126.675 90.61 125.335 89.605 124.525 88.605C123.715 87.605 123.31 86.44 123.31 85.11C123.31 83.91 123.605 82.84 124.195 81.9C124.785 80.95 125.59 80.205 126.61 79.665C127.64 79.115 128.795 78.84 130.075 78.84C131.825 78.84 133.35 79.455 134.65 80.685L135.565 79.125H136.21L136.48 85.68H135.625C135.155 83.81 134.475 82.43 133.585 81.54C132.705 80.64 131.58 80.19 130.21 80.19C129.1 80.19 128.22 80.485 127.57 81.075C126.93 81.665 126.61 82.475 126.61 83.505C126.61 84.435 126.915 85.265 127.525 85.995C128.145 86.725 129.185 87.475 130.645 88.245L132.88 89.445C134.41 90.255 135.515 91.155 136.195 92.145C136.885 93.135 137.23 94.27 137.23 95.55C137.23 96.82 136.91 97.965 136.27 98.985C135.64 99.995 134.78 100.795 133.69 101.385C132.61 101.975 131.39 102.27 130.03 102.27ZM139.859 102V101.34L142.139 100.875V88.65L139.904 87.855V87.39L144.884 85.965H145.214V100.875L147.464 101.34V102H139.859ZM143.654 82.815C143.044 82.815 142.559 82.62 142.199 82.23C141.839 81.84 141.659 81.385 141.659 80.865C141.659 80.295 141.839 79.815 142.199 79.425C142.559 79.035 143.044 78.84 143.654 78.84C144.274 78.84 144.764 79.035 145.124 79.425C145.494 79.815 145.679 80.295 145.679 80.865C145.679 81.385 145.494 81.84 145.124 82.23C144.764 82.62 144.274 82.815 143.654 82.815ZM159.11 87.075C159.28 86.585 159.505 86.085 159.785 85.575C160.065 85.055 160.415 84.615 160.835 84.255C161.255 83.895 161.75 83.715 162.32 83.715C162.79 83.715 163.2 83.85 163.55 84.12C163.9 84.39 164.075 84.76 164.075 85.23C164.075 85.63 163.94 85.975 163.67 86.265C163.4 86.545 163.065 86.685 162.665 86.685C162.375 86.685 162.16 86.62 162.02 86.49C161.88 86.36 161.75 86.23 161.63 86.1C161.52 85.97 161.34 85.905 161.09 85.905C160.82 85.905 160.575 86.08 160.355 86.43C160.135 86.77 159.98 87.16 159.89 87.6L159.11 87.075ZM155.885 95.985C156.645 95.985 157.235 95.74 157.655 95.25C158.085 94.76 158.385 94.155 158.555 93.435C158.725 92.705 158.81 92 158.81 91.32C158.81 90.89 158.77 90.425 158.69 89.925C158.62 89.415 158.485 88.935 158.285 88.485C158.095 88.025 157.815 87.65 157.445 87.36C157.085 87.06 156.62 86.91 156.05 86.91C155.45 86.91 154.96 87.07 154.58 87.39C154.2 87.7 153.905 88.105 153.695 88.605C153.485 89.095 153.34 89.61 153.26 90.15C153.18 90.69 153.14 91.185 153.14 91.635C153.14 92.205 153.21 92.83 153.35 93.51C153.49 94.18 153.755 94.76 154.145 95.25C154.545 95.74 155.125 95.985 155.885 95.985ZM155.9 96.975C154.84 96.975 154.03 97.1 153.47 97.35C152.91 97.59 152.63 97.965 152.63 98.475C152.63 98.835 152.88 99.135 153.38 99.375C153.89 99.605 154.875 99.83 156.335 100.05L158.48 100.425C160.22 100.695 161.5 101.155 162.32 101.805C163.15 102.445 163.565 103.315 163.565 104.415C163.565 105.325 163.31 106.115 162.8 106.785C162.29 107.455 161.605 108.005 160.745 108.435C159.895 108.875 158.945 109.2 157.895 109.41C156.845 109.62 155.78 109.725 154.7 109.725C153.91 109.725 153.135 109.65 152.375 109.5C151.615 109.36 150.925 109.135 150.305 108.825C149.695 108.515 149.205 108.115 148.835 107.625C148.465 107.135 148.28 106.54 148.28 105.84C148.28 105.02 148.585 104.28 149.195 103.62C149.805 102.97 150.855 102.345 152.345 101.745L153.26 102.12C152.5 102.41 151.905 102.86 151.475 103.47C151.045 104.09 150.83 104.755 150.83 105.465C150.83 106.195 151.035 106.795 151.445 107.265C151.855 107.745 152.4 108.1 153.08 108.33C153.77 108.57 154.515 108.69 155.315 108.69C156.285 108.69 157.21 108.58 158.09 108.36C158.98 108.14 159.705 107.8 160.265 107.34C160.835 106.88 161.12 106.29 161.12 105.57C161.12 105.2 161 104.865 160.76 104.565C160.52 104.265 160.055 103.98 159.365 103.71C158.685 103.45 157.68 103.195 156.35 102.945L153.875 102.48C152.565 102.23 151.58 101.84 150.92 101.31C150.27 100.78 149.945 100.145 149.945 99.405C149.945 99.065 150.05 98.7 150.26 98.31C150.48 97.92 150.9 97.555 151.52 97.215C152.14 96.865 153.055 96.605 154.265 96.435L155.9 96.975ZM155.9 96.975C154.73 96.975 153.695 96.75 152.795 96.3C151.895 95.84 151.19 95.2 150.68 94.38C150.17 93.55 149.915 92.585 149.915 91.485C149.915 90.425 150.175 89.48 150.695 88.65C151.225 87.82 151.945 87.165 152.855 86.685C153.765 86.205 154.795 85.965 155.945 85.965C157.085 85.965 158.115 86.2 159.035 86.67C159.955 87.13 160.685 87.77 161.225 88.59C161.765 89.41 162.035 90.345 162.035 91.395C162.035 92.385 161.78 93.305 161.27 94.155C160.76 94.995 160.045 95.675 159.125 96.195C158.205 96.715 157.13 96.975 155.9 96.975ZM164.58 102V101.34L166.86 100.875V80.025L164.61 79.23V78.765L169.605 77.355H169.92V100.875L172.17 101.34V102H164.58ZM182.021 102.315C180.481 102.315 179.116 101.96 177.926 101.25C176.736 100.53 175.801 99.555 175.121 98.325C174.451 97.085 174.116 95.69 174.116 94.14C174.116 92.58 174.451 91.185 175.121 89.955C175.801 88.725 176.736 87.755 177.926 87.045C179.116 86.325 180.481 85.965 182.021 85.965C183.561 85.965 184.921 86.325 186.101 87.045C187.291 87.755 188.226 88.725 188.906 89.955C189.586 91.185 189.926 92.58 189.926 94.14C189.926 95.69 189.586 97.085 188.906 98.325C188.226 99.555 187.291 100.53 186.101 101.25C184.921 101.96 183.561 102.315 182.021 102.315ZM181.991 100.935C182.721 100.935 183.366 100.775 183.926 100.455C184.486 100.125 184.956 99.66 185.336 99.06C185.726 98.45 186.021 97.73 186.221 96.9C186.421 96.06 186.521 95.13 186.521 94.11C186.521 93.1 186.421 92.18 186.221 91.35C186.031 90.52 185.746 89.805 185.366 89.205C184.986 88.605 184.516 88.145 183.956 87.825C183.396 87.495 182.751 87.33 182.021 87.33C181.291 87.33 180.646 87.495 180.086 87.825C179.526 88.145 179.056 88.605 178.676 89.205C178.296 89.805 178.006 90.525 177.806 91.365C177.616 92.195 177.521 93.12 177.521 94.14C177.521 95.16 177.616 96.085 177.806 96.915C178.006 97.745 178.296 98.46 178.676 99.06C179.056 99.66 179.521 100.125 180.071 100.455C180.631 100.775 181.271 100.935 181.991 100.935Z" fill="white"/>
</g>
<g filter="url(#filter2_d_98_2)">
<path d="M4.672 78V75.9H41.464C44.264 75.9 46.616 75.088 48.52 73.464C50.48 71.84 51.992 69.684 53.056 66.996C54.12 64.308 54.68 61.396 54.736 58.26H57.676V78H4.672ZM14.584 76.74V15.504H25.84V76.74H14.584ZM38.86 59.856C38.804 56.72 38.384 54.256 37.6 52.464C36.816 50.672 35.472 49.412 33.568 48.684C31.72 47.9 29.06 47.508 25.588 47.508V45.408C29.06 45.408 31.748 45.072 33.652 44.4C35.612 43.728 36.956 42.552 37.684 40.872C38.468 39.192 38.86 36.84 38.86 33.816H41.8V59.856H38.86ZM52.216 31.884C52.16 29.14 51.6 26.648 50.536 24.408C49.472 22.112 47.96 20.264 46 18.864C44.096 17.464 41.744 16.764 38.944 16.764H4.672V14.664H55.156V31.884H52.216Z" fill="white"/>
</g>
<line x1="74.5" y1="20.5" x2="303.5" y2="20.5" stroke="#FF0000" stroke-width="9" stroke-linecap="round"/>
<line x1="8.5" y1="92.5" x2="108.5" y2="92.5" stroke="#0075FF" stroke-width="9" stroke-linecap="round"/>
<g filter="url(#filter3_d_98_2)">
<path d="M240.84 93.52V94H225.54V93.52L230.76 93.04L218.1 74.68L205.92 91.12C205.44 91.76 205.2 92.22 205.2 92.5C205.2 92.7 205.32 92.86 205.56 92.98C205.84 93.06 206.28 93.14 206.88 93.22L210.3 93.52V94H198.06V93.52L201.12 93.28C202.08 93.2 202.82 93.02 203.34 92.74C203.86 92.42 204.4 91.88 204.96 91.12L217.62 73.96L203.58 53.56L198.66 53.08V52.6H213.96V53.08L208.74 53.56L220.8 71.08L232.38 55.48C232.86 54.8 233.1 54.34 233.1 54.1C233.1 53.9 232.96 53.76 232.68 53.68C232.44 53.56 232.02 53.46 231.42 53.38L228 53.08V52.6H240.24V53.08L237.18 53.32C236.22 53.4 235.48 53.6 234.96 53.92C234.44 54.2 233.9 54.72 233.34 55.48L221.28 71.8L235.92 93.04L240.84 93.52Z" fill="#E7C006"/>
<path d="M283.731 93.52V94H268.431V93.52L273.651 93.04L260.991 74.68L248.811 91.12C248.331 91.76 248.091 92.22 248.091 92.5C248.091 92.7 248.211 92.86 248.451 92.98C248.731 93.06 249.171 93.14 249.771 93.22L253.191 93.52V94H240.951V93.52L244.011 93.28C244.971 93.2 245.711 93.02 246.231 92.74C246.751 92.42 247.291 91.88 247.851 91.12L260.511 73.96L246.471 53.56L241.551 53.08V52.6H256.851V53.08L251.631 53.56L263.691 71.08L275.271 55.48C275.751 54.8 275.991 54.34 275.991 54.1C275.991 53.9 275.851 53.76 275.571 53.68C275.331 53.56 274.911 53.46 274.311 53.38L270.891 53.08V52.6H283.131V53.08L280.071 53.32C279.111 53.4 278.371 53.6 277.851 53.92C277.331 54.2 276.791 54.72 276.231 55.48L264.171 71.8L278.811 93.04L283.731 93.52Z" fill="white"/>
<path d="M286.181 52.6H300.641V53.08L295.721 53.56V93.04L300.641 93.52V94H286.181V93.52L291.101 93.04V53.56L286.181 53.08V52.6Z" fill="#1C862D"/>
</g>
<defs>
<filter id="filter0_d_98_2" x="58.275" y="28.925" width="139.966" height="50.6" filterUnits="userSpaceOnUse" color-interpolation-filters="sRGB">
<feFlood flood-opacity="0" result="BackgroundImageFix"/>
<feColorMatrix in="SourceAlpha" type="matrix" values="0 0 0 0 0 0 0 0 0 0 0 0 0 0 0 0 0 0 127 0" result="hardAlpha"/>
<feOffset dy="5"/>
<feGaussianBlur stdDeviation="2"/>
<feComposite in2="hardAlpha" operator="out"/>
<feColorMatrix type="matrix" values="0 0 0 0 0 0 0 0 0 0 0 0 0 0 0 0 0 0 0.25 0"/>
<feBlend mode="normal" in2="BackgroundImageFix" result="effect1_dropShadow_98_2"/>
<feBlend mode="normal" in="SourceGraphic" in2="effect1_dropShadow_98_2" result="shape"/>
</filter>
<filter id="filter1_d_98_2" x="118.83" y="77.355" width="75.0962" height="41.37" filterUnits="userSpaceOnUse" color-interpolation-filters="sRGB">
<feFlood flood-opacity="0" result="BackgroundImageFix"/>
<feColorMatrix in="SourceAlpha" type="matrix" values="0 0 0 0 0 0 0 0 0 0 0 0 0 0 0 0 0 0 127 0" result="hardAlpha"/>
<feOffset dy="5"/>
<feGaussianBlur stdDeviation="2"/>
<feComposite in2="hardAlpha" operator="out"/>
<feColorMatrix type="matrix" values="0 0 0 0 0 0 0 0 0 0 0 0 0 0 0 0 0 0 0.25 0"/>
<feBlend mode="normal" in2="BackgroundImageFix" result="effect1_dropShadow_98_2"/>
<feBlend mode="normal" in="SourceGraphic" in2="effect1_dropShadow_98_2" result="shape"/>
</filter>
<filter id="filter2_d_98_2" x="0.671997" y="14.664" width="61.004" height="72.336" filterUnits="userSpaceOnUse" color-interpolation-filters="sRGB">
<feFlood flood-opacity="0" result="BackgroundImageFix"/>
<feColorMatrix in="SourceAlpha" type="matrix" values="0 0 0 0 0 0 0 0 0 0 0 0 0 0 0 0 0 0 127 0" result="hardAlpha"/>
<feOffset dy="5"/>
<feGaussianBlur stdDeviation="2"/>
<feComposite in2="hardAlpha" operator="out"/>
<feColorMatrix type="matrix" values="0 0 0 0 0 0 0 0 0 0 0 0 0 0 0 0 0 0 0.25 0"/>
<feBlend mode="normal" in2="BackgroundImageFix" result="effect1_dropShadow_98_2"/>
<feBlend mode="normal" in="SourceGraphic" in2="effect1_dropShadow_98_2" result="shape"/>
</filter>
<filter id="filter3_d_98_2" x="194.06" y="52.6" width="110.581" height="50.4" filterUnits="userSpaceOnUse" color-interpolation-filters="sRGB">
<feFlood flood-opacity="0" result="BackgroundImageFix"/>
<feColorMatrix in="SourceAlpha" type="matrix" values="0 0 0 0 0 0 0 0 0 0 0 0 0 0 0 0 0 0 127 0" result="hardAlpha"/>
<feOffset dy="5"/>
<feGaussianBlur stdDeviation="2"/>
<feComposite in2="hardAlpha" operator="out"/>
<feColorMatrix type="matrix" values="0 0 0 0 0 0 0 0 0 0 0 0 0 0 0 0 0 0 0.25 0"/>
<feBlend mode="normal" in2="BackgroundImageFix" result="effect1_dropShadow_98_2"/>
<feBlend mode="normal" in="SourceGraphic" in2="effect1_dropShadow_98_2" result="shape"/>
</filter>
</defs>
</svg>
